<svg xmlns="http://www.w3.org/2000/svg" width="900" height="900" viewBox="0 0 900 900" fill="none">
  <rect width="900" height="900" fill="#F4F7FA"/>
  <rect x="110" y="130" width="560" height="660" rx="18" fill="#FFFFFF" stroke="#C8D5E3"/>
  <rect x="170" y="220" width="430" height="20" rx="10" fill="#1E467A"/>
  <rect x="170" y="272" width="380" height="14" rx="7" fill="#A9BACB"/>
  <rect x="170" y="307" width="400" height="14" rx="7" fill="#A9BACB"/>
  <rect x="170" y="342" width="335" height="14" rx="7" fill="#A9BACB"/>
  <rect x="170" y="410" width="430" height="20" rx="10" fill="#1E467A"/>
  <rect x="170" y="462" width="400" height="14" rx="7" fill="#A9BACB"/>
  <rect x="170" y="497" width="370" height="14" rx="7" fill="#A9BACB"/>
  <rect x="170" y="532" width="350" height="14" rx="7" fill="#A9BACB"/>
  <rect x="515" y="90" width="280" height="360" rx="18" fill="#FFFFFF" stroke="#C8D5E3"/>
  <rect x="555" y="170" width="180" height="16" rx="8" fill="#A22F2A"/>
  <rect x="555" y="215" width="145" height="12" rx="6" fill="#BFCAD6"/>
  <rect x="555" y="245" width="160" height="12" rx="6" fill="#BFCAD6"/>
  <rect x="555" y="275" width="120" height="12" rx="6" fill="#BFCAD6"/>
  <circle cx="706" cy="630" r="122" fill="#123A6F" opacity="0.1"/>
  <circle cx="706" cy="630" r="94" fill="#123A6F" opacity="0.18"/>
  <circle cx="706" cy="630" r="44" fill="#123A6F"/>
</svg>
