<?xml version="1.0" encoding="UTF-8"?>
<svg xmlns="http://www.w3.org/2000/svg" width="1200" height="675" viewBox="0 0 1200 675" role="img" aria-label="AS-0 congressional district map">
  <path d="M 393.1 591.1 L 393.4 590.4 L 393.7 589.5 L 394.5 587.9 L 395.6 586.1 L 395.6 586.1 L 396 585.7 L 396.9 584.8 L 397.2 584.4 L 397.6 584 L 397.6 584 L 398.8 582.9 L 399.6 582.2 L 401.3 581.1 L 402.6 581 L 403 581 L 403 581 L 403.5 580.4 L 403.9 579.9 L 404.1 579.8 L 404.1 579.7 L 404.1 579.7 L 404 579.8 L 405.1 579.4 L 407.1 579.1 L 407.8 579.2 L 408.3 579.2 L 408.8 579.1 L 413.3 578.7 L 416 578.3 L 416 578.3 L 416 578.3 L 416 578.3 L 416.1 578.1 L 416.3 577.6 L 416.4 577.5 L 416.6 577 L 417.4 576.3 L 417.5 576.1 L 418.1 575.7 L 418.9 575.3 L 419.9 575.2 L 420.1 574.7 L 420.8 573.8 L 421.6 573.1 L 422 572.8 L 423.1 572.2 L 423.1 572.2 L 423.5 571.9 L 423.7 570.8 L 424.9 569.7 L 424.9 569.7 L 426.2 568.4 L 427.9 567.7 L 429.8 567.3 L 431.4 567.2 L 433.6 567.5 L 433.7 567.5 L 434.5 567.8 L 435.9 568.5 L 436.4 569 L 437.1 569.5 L 439.4 571 L 440.1 571.4 L 440.2 571.4 L 440.2 571.4 L 440.4 571.3 L 440.4 571.3 L 440.7 571.3 L 441.7 571.1 L 442 571 L 442.1 571 L 442.4 570.9 L 442.4 570.9 L 443.4 570.7 L 445.9 571 L 447.1 571.1 L 450.8 572.1 L 453.2 574.7 L 454.6 576.3 L 455 576.7 L 455.6 579.8 L 455.7 580 L 455.8 580.2 L 455.7 580.5 L 455.8 580.7 L 455.9 580.8 L 456 580.9 L 457.6 582.4 L 458.3 585.2 L 458.1 588.5 L 456.8 591.1 L 456.4 591.6 L 455.7 592.4 L 455.2 593 L 453.6 593.7 L 452 594.1 L 451.7 594.1 L 450.5 594.2 L 448.9 594.4 L 448.8 594.4 L 447 594.6 L 444.9 594.4 L 443.8 594.1 L 443.5 594 L 442.9 593.7 L 442.7 593.4 L 442.3 593.4 L 442.1 593.5 L 441.7 593.5 L 441.4 593.6 L 441.2 593.7 L 440.9 593.7 L 440.1 593.9 L 440.1 593.9 L 439.9 593.9 L 439.5 593.9 L 438.4 593.9 L 438 593.9 L 437.8 593.9 L 437.7 593.9 L 436.9 594 L 436.6 594.1 L 436.4 594.1 L 435.9 594.1 L 435.2 594.1 L 434.3 594.4 L 434 594.6 L 433.5 595 L 433.4 595 L 433.1 595.5 L 432.6 596.2 L 432.2 597.1 L 432 597.6 L 432 597.6 L 431.8 598.1 L 431.6 599 L 431.2 599.4 L 430.9 599.8 L 430.9 599.9 L 430.7 600.1 L 430.6 600.2 L 430.4 600.3 L 430 600.7 L 429.8 600.8 L 429.7 600.9 L 429.6 600.9 L 429.4 601.1 L 429.3 601.2 L 429.2 601.3 L 428.5 601.7 L 428.1 602 L 426 603.5 L 425.8 603.7 L 425.2 604.1 L 424.6 604.5 L 422.9 605.6 L 422.4 606 L 422.3 606.1 L 422 606.2 L 422 606.3 L 421.9 606.3 L 419.9 607.7 L 417.8 608.4 L 417.6 608.3 L 417.2 608.3 L 417 608.3 L 416 608.2 L 415.9 608.2 L 414.4 608.1 L 413.8 607.8 L 413.2 607.6 L 412.1 607.2 L 412 607.2 L 411.6 606.8 L 411.6 606.8 L 411.5 606.8 L 411.5 606.8 L 411 606.3 L 410.9 606.3 L 410.4 605.6 L 410.1 605.1 L 409.4 605 L 409.1 604.9 L 408.7 604.8 L 408.6 604.8 L 408.3 604.7 L 408.2 604.7 L 408.2 604.6 L 408.2 604.6 L 408.2 604.6 L 408 604.6 L 407.6 604.4 L 407.5 604.4 L 407.4 604.4 L 407.2 604.3 L 407 604.1 L 406.9 604 L 406.9 604 L 406.8 604 L 406.8 603.9 L 406.7 603.8 L 406.3 603.5 L 406.2 603.4 L 405.8 603.1 L 405.8 603 L 404.9 601.7 L 404.8 601.6 L 404.4 601.2 L 404.4 601.1 L 404.3 600.8 L 404.1 600.3 L 403.8 600.2 L 403.7 600.1 L 403.7 600.1 L 403.5 600.1 L 403.4 600.1 L 403.2 600.1 L 403 600.1 L 402.8 600.1 L 402.6 600.1 L 402.3 600 L 401.6 600 L 401.3 599.9 L 401 599.8 L 400.4 599.6 L 399.3 599.3 L 398.8 599 L 398.3 598.8 L 397.7 598.4 L 397.1 598 L 396.5 597.4 L 396.1 597 L 395.6 596.5 L 395.6 596.6 L 394.2 595.4 L 393.5 593.8 L 393.3 593.4 L 393.1 592.1 L 393.1 591.1 Z M 827.8 627.9 L 827.9 626 L 828.1 625.5 L 828.8 623.9 L 828.8 623.9 L 828.9 623.9 L 828.9 623.8 L 828.9 623.8 L 828.9 623.8 L 828.9 623.8 L 830.3 621.9 L 830.3 621.9 L 832 620.2 L 834 619 L 836.2 618.4 L 836.4 618.4 L 838.8 618.1 L 839 618.1 L 839.5 618.1 L 839.6 618.1 L 839.6 618.1 L 839.7 618.1 L 839.7 618.1 L 839.7 618.1 L 839.7 618.2 L 839.7 618.2 L 841 618.7 L 842.5 619.2 L 844.4 620.5 L 844.7 620.8 L 845.6 621.9 L 846.4 623.2 L 846.7 624 L 847.4 626 L 847.9 628.2 L 847.8 630.8 L 847.8 630.9 L 847.2 633.1 L 846.8 634.3 L 846.5 635.2 L 845.6 636.5 L 844.7 637.2 L 843.7 638 L 843.7 638.1 L 843.5 638.2 L 843.5 638.2 L 842.4 638.6 L 838.8 639 L 836.2 638.9 L 834.9 638.7 L 832.7 638.2 L 830.8 637 L 829 634.5 L 828.1 632.2 L 827.8 630.5 L 827.6 629.8 L 827.8 627.9 Z M 583 565.6 L 583.1 563.9 L 583.6 561.9 L 583.9 560.9 L 584.4 560.1 L 585.2 559.5 L 586.2 558.7 L 586.7 558.1 L 586.9 557.9 L 588.4 557.3 L 590.8 556.5 L 592.8 556.1 L 593.5 556 L 594.5 556.1 L 596 556.4 L 596.8 556.5 L 597.6 556.7 L 598.6 556.8 L 599.3 556.4 L 599.5 556.3 L 601.1 555.7 L 601.9 555.5 L 603.7 555.4 L 605.2 555.8 L 607.5 556.8 L 607.5 556.8 L 607.9 557.2 L 608.1 557.3 L 608.6 557.8 L 608.8 558 L 609.7 558.7 L 609.8 558.9 L 610.2 559.8 L 610.5 560.3 L 610.9 561.7 L 611 563.2 L 611 563.2 L 611.7 564.2 L 611.8 564.5 L 612 565.1 L 612.1 565.2 L 612 567.6 L 612 567.8 L 612.2 568.7 L 612.2 568.7 L 612.2 568.7 L 612.2 568.7 L 612.2 568.7 L 612.2 568.7 L 612.2 568.7 L 612.3 568.6 L 612.8 568.1 L 612.9 567.9 L 614.1 567.5 L 615 567.3 L 615.3 567.2 L 616 567.1 L 616.4 566.8 L 617.3 566.3 L 618.1 566 L 618.9 565.8 L 619.9 565.6 L 620.8 565.6 L 622.9 565.8 L 625.5 566.1 L 625.7 566.1 L 626.1 566.2 L 626.3 566.2 L 626.7 565.8 L 627.4 565.9 L 630.2 566.3 L 630.9 566.5 L 631.2 566.5 L 633.6 566.1 L 634.2 566.1 L 637 566.3 L 638.5 567.1 L 639.9 568.2 L 640.2 568.8 L 640.7 569.5 L 641.2 570.3 L 641.6 571.7 L 641.6 572 L 641.6 572.9 L 641.5 574.5 L 641.5 576.9 L 641.5 578.9 L 641.5 581.7 L 641.2 582.9 L 641.2 583.7 L 641.1 584.3 L 641 584.7 L 640.5 585.7 L 640.2 586.2 L 639.4 587.3 L 638.4 588.1 L 638.2 588.3 L 636.6 589.4 L 634.7 589.9 L 633 590.1 L 631.2 589.8 L 631.1 589.8 L 629.4 589.2 L 628.7 589 L 628.7 589 L 628.6 589 L 627.4 589.8 L 625.7 590.4 L 624.2 590.9 L 622.7 591.1 L 622.7 591.1 L 619.9 590.4 L 619.5 590.2 L 618.8 589.9 L 617.7 589.5 L 617.7 589.5 L 616.8 588.5 L 616.3 587.3 L 615.3 585.1 L 614.5 583.8 L 614.2 583.6 L 613.5 582.9 L 612.2 582.5 L 611.5 582.2 L 611.2 582.1 L 610.3 581.3 L 609.8 580.5 L 609.5 579.8 L 609.6 579.8 L 609.2 578.4 L 609.2 578.3 L 609 576.4 L 609 575 L 608.9 575 L 608.6 575.2 L 608.6 575.2 L 608.5 575.2 L 608.5 575.3 L 608.5 575.3 L 608.2 575.4 L 606.7 576.4 L 605.5 577 L 603.3 577.6 L 602.1 577.7 L 601 577.7 L 599.8 577.3 L 599.5 577.1 L 599.5 577.1 L 599.2 576.9 L 599.1 576.8 L 598.7 576.3 L 598.6 576.3 L 598.4 576 L 598.2 576.2 L 597.7 576.4 L 597.6 576.5 L 595.9 576.8 L 593.7 577 L 591.7 576.9 L 590.4 576.5 L 588.4 575 L 586.6 573.1 L 584.9 571.5 L 583.5 569.6 L 583 568.1 L 583 566.7 L 583 565.6 Z M 352.2 44.2 L 352.2 44.1 L 352.8 41.5 L 354.7 39.1 L 357 37.1 L 359.7 36.1 L 361.4 36.1 L 363 36 L 365.8 36.3 L 366.8 36.5 L 369.3 36.9 L 369.7 37.1 L 370.7 37.5 L 372.1 38.5 L 372.2 38.7 L 372.9 40.4 L 373.2 44.3 L 373.3 46.2 L 373.4 46.5 L 373.4 49.5 L 372.4 51.3 L 372 52.2 L 370 53.9 L 367.2 54.6 L 363.1 54.8 L 359.2 54.4 L 357.9 54 L 355.5 53.2 L 353.4 51.5 L 353.4 51.5 L 353.4 51.5 L 353.4 51.5 L 353.4 51.5 L 353.4 51.5 L 353.4 51.5 L 353.1 51 L 352.4 49.3 L 352.2 48.7 L 352.2 48.7 L 352.1 46.6 L 352.2 44.2 Z" fill="#d9e1ea" stroke="#9aa9bc" stroke-width="1" fill-rule="evenodd"/>
  <path d="M 393.1 591.1 L 393.4 590.4 L 393.7 589.5 L 394.5 587.9 L 395.6 586.1 L 395.6 586.1 L 396 585.7 L 396.9 584.8 L 397.2 584.4 L 397.6 584 L 397.6 584 L 398.8 582.9 L 399.6 582.2 L 401.3 581.1 L 402.6 581 L 403 581 L 403 581 L 403.5 580.4 L 403.9 579.9 L 404.1 579.8 L 404.1 579.7 L 404.1 579.7 L 404 579.8 L 405.1 579.4 L 407.1 579.1 L 407.8 579.2 L 408.3 579.2 L 408.8 579.1 L 413.3 578.7 L 416 578.3 L 416 578.3 L 416 578.3 L 416 578.3 L 416.1 578.1 L 416.3 577.6 L 416.4 577.5 L 416.6 577 L 417.4 576.3 L 417.5 576.1 L 418.1 575.7 L 418.9 575.3 L 419.9 575.2 L 420.1 574.7 L 420.8 573.8 L 421.6 573.1 L 422 572.8 L 423.1 572.2 L 423.1 572.2 L 423.5 571.9 L 423.7 570.8 L 424.9 569.7 L 424.9 569.7 L 426.2 568.4 L 427.9 567.7 L 429.8 567.3 L 431.4 567.2 L 433.6 567.5 L 433.7 567.5 L 434.5 567.8 L 435.9 568.5 L 436.4 569 L 437.1 569.5 L 439.4 571 L 440.1 571.4 L 440.2 571.4 L 440.2 571.4 L 440.4 571.3 L 440.4 571.3 L 440.7 571.3 L 441.7 571.1 L 442 571 L 442.1 571 L 442.4 570.9 L 442.4 570.9 L 443.4 570.7 L 445.9 571 L 447.1 571.1 L 450.8 572.1 L 453.2 574.7 L 454.6 576.3 L 455 576.7 L 455.6 579.8 L 455.7 580 L 455.8 580.2 L 455.7 580.5 L 455.8 580.7 L 455.9 580.8 L 456 580.9 L 457.6 582.4 L 458.3 585.2 L 458.1 588.5 L 456.8 591.1 L 456.4 591.6 L 455.7 592.4 L 455.2 593 L 453.6 593.7 L 452 594.1 L 451.7 594.1 L 450.5 594.2 L 448.9 594.4 L 448.8 594.4 L 447 594.6 L 444.9 594.4 L 443.8 594.1 L 443.5 594 L 442.9 593.7 L 442.7 593.4 L 442.3 593.4 L 442.1 593.5 L 441.7 593.5 L 441.4 593.6 L 441.2 593.7 L 440.9 593.7 L 440.1 593.9 L 440.1 593.9 L 439.9 593.9 L 439.5 593.9 L 438.4 593.9 L 438 593.9 L 437.8 593.9 L 437.7 593.9 L 436.9 594 L 436.6 594.1 L 436.4 594.1 L 435.9 594.1 L 435.2 594.1 L 434.3 594.4 L 434 594.6 L 433.5 595 L 433.4 595 L 433.1 595.5 L 432.6 596.2 L 432.2 597.1 L 432 597.6 L 432 597.6 L 431.8 598.1 L 431.6 599 L 431.2 599.4 L 430.9 599.8 L 430.9 599.9 L 430.7 600.1 L 430.6 600.2 L 430.4 600.3 L 430 600.7 L 429.8 600.8 L 429.7 600.9 L 429.6 600.9 L 429.4 601.1 L 429.3 601.2 L 429.2 601.3 L 428.5 601.7 L 428.1 602 L 426 603.5 L 425.8 603.7 L 425.2 604.1 L 424.6 604.5 L 422.9 605.6 L 422.4 606 L 422.3 606.1 L 422 606.2 L 422 606.3 L 421.9 606.3 L 419.9 607.7 L 417.8 608.4 L 417.6 608.3 L 417.2 608.3 L 417 608.3 L 416 608.2 L 415.9 608.2 L 414.4 608.1 L 413.8 607.8 L 413.2 607.6 L 412.1 607.2 L 412 607.2 L 411.6 606.8 L 411.6 606.8 L 411.5 606.8 L 411.5 606.8 L 411 606.3 L 410.9 606.3 L 410.4 605.6 L 410.1 605.1 L 409.4 605 L 409.1 604.9 L 408.7 604.8 L 408.6 604.8 L 408.3 604.7 L 408.2 604.7 L 408.2 604.6 L 408.2 604.6 L 408.2 604.6 L 408 604.6 L 407.6 604.4 L 407.5 604.4 L 407.4 604.4 L 407.2 604.3 L 407 604.1 L 406.9 604 L 406.9 604 L 406.8 604 L 406.8 603.9 L 406.7 603.8 L 406.3 603.5 L 406.2 603.4 L 405.8 603.1 L 405.8 603 L 404.9 601.7 L 404.8 601.6 L 404.4 601.2 L 404.4 601.1 L 404.3 600.8 L 404.1 600.3 L 403.8 600.2 L 403.7 600.1 L 403.7 600.1 L 403.5 600.1 L 403.4 600.1 L 403.2 600.1 L 403 600.1 L 402.8 600.1 L 402.6 600.1 L 402.3 600 L 401.6 600 L 401.3 599.9 L 401 599.8 L 400.4 599.6 L 399.3 599.3 L 398.8 599 L 398.3 598.8 L 397.7 598.4 L 397.1 598 L 396.5 597.4 L 396.1 597 L 395.6 596.5 L 395.6 596.6 L 394.2 595.4 L 393.5 593.8 L 393.3 593.4 L 393.1 592.1 L 393.1 591.1 Z M 827.8 627.9 L 827.9 626 L 828.1 625.5 L 828.8 623.9 L 828.8 623.9 L 828.9 623.9 L 828.9 623.8 L 828.9 623.8 L 828.9 623.8 L 828.9 623.8 L 830.3 621.9 L 830.3 621.9 L 832 620.2 L 834 619 L 836.2 618.4 L 836.4 618.4 L 838.8 618.1 L 839 618.1 L 839.5 618.1 L 839.6 618.1 L 839.6 618.1 L 839.7 618.1 L 839.7 618.1 L 839.7 618.1 L 839.7 618.2 L 839.7 618.2 L 841 618.7 L 842.5 619.2 L 844.4 620.5 L 844.7 620.8 L 845.6 621.9 L 846.4 623.2 L 846.7 624 L 847.4 626 L 847.9 628.2 L 847.8 630.8 L 847.8 630.9 L 847.2 633.1 L 846.8 634.3 L 846.5 635.2 L 845.6 636.5 L 844.7 637.2 L 843.7 638 L 843.7 638.1 L 843.5 638.2 L 843.5 638.2 L 842.4 638.6 L 838.8 639 L 836.2 638.9 L 834.9 638.7 L 832.7 638.2 L 830.8 637 L 829 634.5 L 828.1 632.2 L 827.8 630.5 L 827.6 629.8 L 827.8 627.9 Z M 583 565.6 L 583.1 563.9 L 583.6 561.9 L 583.9 560.9 L 584.4 560.1 L 585.2 559.5 L 586.2 558.7 L 586.7 558.1 L 586.9 557.9 L 588.4 557.3 L 590.8 556.5 L 592.8 556.1 L 593.5 556 L 594.5 556.1 L 596 556.4 L 596.8 556.5 L 597.6 556.7 L 598.6 556.8 L 599.3 556.4 L 599.5 556.3 L 601.1 555.7 L 601.9 555.5 L 603.7 555.4 L 605.2 555.8 L 607.5 556.8 L 607.5 556.8 L 607.9 557.2 L 608.1 557.3 L 608.6 557.8 L 608.8 558 L 609.7 558.7 L 609.8 558.9 L 610.2 559.8 L 610.5 560.3 L 610.9 561.7 L 611 563.2 L 611 563.2 L 611.7 564.2 L 611.8 564.5 L 612 565.1 L 612.1 565.2 L 612 567.6 L 612 567.8 L 612.2 568.7 L 612.2 568.7 L 612.2 568.7 L 612.2 568.7 L 612.2 568.7 L 612.2 568.7 L 612.2 568.7 L 612.3 568.6 L 612.8 568.1 L 612.9 567.9 L 614.1 567.5 L 615 567.3 L 615.3 567.2 L 616 567.1 L 616.4 566.8 L 617.3 566.3 L 618.1 566 L 618.9 565.8 L 619.9 565.6 L 620.8 565.6 L 622.9 565.8 L 625.5 566.1 L 625.7 566.1 L 626.1 566.2 L 626.3 566.2 L 626.7 565.8 L 627.4 565.9 L 630.2 566.3 L 630.9 566.5 L 631.2 566.5 L 633.6 566.1 L 634.2 566.1 L 637 566.3 L 638.5 567.1 L 639.9 568.2 L 640.2 568.8 L 640.7 569.5 L 641.2 570.3 L 641.6 571.7 L 641.6 572 L 641.6 572.9 L 641.5 574.5 L 641.5 576.9 L 641.5 578.9 L 641.5 581.7 L 641.2 582.9 L 641.2 583.7 L 641.1 584.3 L 641 584.7 L 640.5 585.7 L 640.2 586.2 L 639.4 587.3 L 638.4 588.1 L 638.2 588.3 L 636.6 589.4 L 634.7 589.9 L 633 590.1 L 631.2 589.8 L 631.1 589.8 L 629.4 589.2 L 628.7 589 L 628.7 589 L 628.6 589 L 627.4 589.8 L 625.7 590.4 L 624.2 590.9 L 622.7 591.1 L 622.7 591.1 L 619.9 590.4 L 619.5 590.2 L 618.8 589.9 L 617.7 589.5 L 617.7 589.5 L 616.8 588.5 L 616.3 587.3 L 615.3 585.1 L 614.5 583.8 L 614.2 583.6 L 613.5 582.9 L 612.2 582.5 L 611.5 582.2 L 611.2 582.1 L 610.3 581.3 L 609.8 580.5 L 609.5 579.8 L 609.6 579.8 L 609.2 578.4 L 609.2 578.3 L 609 576.4 L 609 575 L 608.9 575 L 608.6 575.2 L 608.6 575.2 L 608.5 575.2 L 608.5 575.3 L 608.5 575.3 L 608.2 575.4 L 606.7 576.4 L 605.5 577 L 603.3 577.6 L 602.1 577.7 L 601 577.7 L 599.8 577.3 L 599.5 577.1 L 599.5 577.1 L 599.2 576.9 L 599.1 576.8 L 598.7 576.3 L 598.6 576.3 L 598.4 576 L 598.2 576.2 L 597.7 576.4 L 597.6 576.5 L 595.9 576.8 L 593.7 577 L 591.7 576.9 L 590.4 576.5 L 588.4 575 L 586.6 573.1 L 584.9 571.5 L 583.5 569.6 L 583 568.1 L 583 566.7 L 583 565.6 Z M 352.2 44.2 L 352.2 44.1 L 352.8 41.5 L 354.7 39.1 L 357 37.1 L 359.7 36.1 L 361.4 36.1 L 363 36 L 365.8 36.3 L 366.8 36.5 L 369.3 36.9 L 369.7 37.1 L 370.7 37.5 L 372.1 38.5 L 372.2 38.7 L 372.9 40.4 L 373.2 44.3 L 373.3 46.2 L 373.4 46.5 L 373.4 49.5 L 372.4 51.3 L 372 52.2 L 370 53.9 L 367.2 54.6 L 363.1 54.8 L 359.2 54.4 L 357.9 54 L 355.5 53.2 L 353.4 51.5 L 353.4 51.5 L 353.4 51.5 L 353.4 51.5 L 353.4 51.5 L 353.4 51.5 L 353.4 51.5 L 353.1 51 L 352.4 49.3 L 352.2 48.7 L 352.2 48.7 L 352.1 46.6 L 352.2 44.2 Z" fill="#1e5ea9" fill-opacity="0.86" stroke="#0b3b75" stroke-width="1.2" fill-rule="evenodd"/>
</svg>
