<?xml version="1.0" encoding="UTF-8"?>
<svg xmlns="http://www.w3.org/2000/svg" width="1200" height="675" viewBox="0 0 1200 675" role="img" aria-label="GU-0 congressional district map">
  <path d="M 350.5 333.3 L 350.6 329.9 L 350.9 328.7 L 351.3 326.9 L 351.9 323.4 L 352.7 319.1 L 353.7 315.3 L 355.1 311.8 L 356.9 308.2 L 358.4 305.6 L 359.4 304 L 360.1 302.8 L 362.6 299.4 L 364.3 296.8 L 365.3 295.3 L 367.4 293.3 L 369.1 291.6 L 370.1 290.4 L 371 289.4 L 372.8 287.3 L 375 284.5 L 376.5 283 L 378.9 280.6 L 381 279 L 383.4 277.2 L 384.1 276.8 L 384.8 276.4 L 386.9 275.2 L 388.6 274.4 L 390.3 273.5 L 393 270.7 L 396.5 267.5 L 400.4 264.7 L 403.9 261.7 L 407.5 259.8 L 410 258.4 L 415.4 256.6 L 419.4 255.2 L 426.1 254.4 L 433.3 253.3 L 440.5 253 L 448.3 253.6 L 456 254.4 L 461.1 255.5 L 462.1 256 L 466.1 253.1 L 470.5 250.9 L 472.8 249.7 L 477.3 247.3 L 484.3 244 L 489.4 242.2 L 490.4 241.9 L 492.3 241.2 L 495.6 240.1 L 498 239.8 L 499.9 239.5 L 501.4 239.4 L 501.7 239.3 L 505.9 239.2 L 507.4 239.2 L 509 239.3 L 511.3 239.4 L 513.8 240.1 L 513.8 240.1 L 515.3 239.6 L 518.2 238.9 L 521.6 238 L 527 237.2 L 528.1 237.1 L 530 237 L 531.9 236.9 L 534 234.5 L 539.8 227.7 L 544.6 223.2 L 545.3 222.5 L 548.6 220 L 550.6 218.5 L 551 218.3 L 555.7 215.4 L 557.1 214.8 L 559.4 213.7 L 559.9 212.8 L 561.4 210.1 L 561.9 209.2 L 563.6 204.7 L 567.1 199 L 567.2 198.6 L 568.8 193.4 L 570.5 188.3 L 573.7 182.6 L 575.8 178.3 L 578.2 175.2 L 581.2 171.3 L 584.8 167.8 L 586.1 166.6 L 588.1 162.1 L 590.1 159.9 L 590.3 157.6 L 590.6 154.7 L 591 150.9 L 591.8 145.9 L 593.8 140.8 L 594.2 139.7 L 593.8 134.4 L 594.2 129.5 L 595.7 123 L 597.3 116.1 L 598.3 111.8 L 599.6 108.1 L 601.2 102.2 L 603.7 96.9 L 607.1 91.7 L 607.5 91.1 L 611.5 86.5 L 615.4 82.1 L 617.3 80 L 618 78.6 L 619.5 75.5 L 622.2 70.2 L 625.2 65.8 L 625.3 65.6 L 628.7 61.1 L 633.7 56.1 L 641.1 50.1 L 645.7 46.7 L 652.4 42.9 L 658.4 40 L 659.7 39.5 L 666 37.3 L 673.7 36.2 L 675.3 36 L 683 36.4 L 691.8 37.9 L 697.8 39.2 L 699.3 39.3 L 704.5 40.8 L 707.7 42 L 710 42.8 L 715.2 45.2 L 722 49 L 728.8 53.8 L 735.2 57.7 L 741.4 62.7 L 746.4 67.8 L 750 72.9 L 754 79.8 L 757.3 82.7 L 761.8 86.9 L 768.6 93.7 L 772.7 100.1 L 780.5 100.5 L 788.2 100.7 L 789 100.8 L 796.5 102.1 L 803.5 104 L 812 107.3 L 818.6 110.9 L 821.1 113 L 824.4 115.9 L 825.2 116.6 L 833.5 125.8 L 834.3 126.7 L 835.8 129.5 L 836.1 129.5 L 836.7 129.5 L 836.9 129.5 L 837.5 130 L 838 130.4 L 838.9 131.7 L 839.3 132.3 L 842.7 137.4 L 844.9 143.7 L 844.9 143.9 L 846.5 149.8 L 847.4 154.1 L 848.1 158.1 L 849.1 163.1 L 849.5 168.5 L 848.4 174.2 L 846.8 180.3 L 845.9 182 L 844.5 184.8 L 842.7 188.7 L 839.3 193.1 L 838.6 193.3 L 838.7 194.2 L 838.7 194.7 L 838.5 197.1 L 838 199.1 L 837.7 200.2 L 837.6 200.7 L 836.7 203.1 L 835.8 205.4 L 835.5 206.1 L 834.6 208.2 L 833.4 210.8 L 832 213.4 L 829.7 216.6 L 827.5 219.2 L 827.1 221.1 L 826.8 222.9 L 825.8 226.4 L 825.8 226.8 L 824.9 230.9 L 824.8 231.4 L 823.3 235.6 L 822.2 239.6 L 821 242.6 L 820.8 242.9 L 819.3 245.6 L 818.8 246.5 L 817.8 248.1 L 816 250.9 L 814.9 255.3 L 813.5 260.6 L 812.2 265.7 L 810.4 269 L 809.9 269.9 L 807.9 273.5 L 806.3 275.8 L 804.6 278.5 L 803 280.7 L 801.4 282.3 L 800.8 283.4 L 798.6 286.2 L 797 287.8 L 794.9 290.3 L 792.3 293.6 L 790.3 295.3 L 787.8 297.8 L 785.2 299.5 L 782.8 300.8 L 779.6 303 L 776.8 304.9 L 773.4 306.3 L 770.1 307.4 L 767.6 308.4 L 763.4 308.8 L 762.1 311.1 L 759.9 313.6 L 758.3 316 L 756.2 318.2 L 755.8 318.5 L 753.2 321.3 L 750.9 323.7 L 748.9 326.1 L 746.6 328.3 L 743.7 330.6 L 741.1 332.5 L 738.4 333.9 L 737.6 334.5 L 735.7 335.7 L 733.2 337.1 L 730.5 338.1 L 728.5 338.8 L 726 339.5 L 724.8 341.2 L 722.8 344.5 L 720.7 346.7 L 718.9 348.5 L 716.6 350.9 L 714.1 354 L 712.3 355.6 L 710 357.8 L 707.4 360 L 707.2 360.2 L 704.8 362.2 L 702.7 363.7 L 699.3 366.1 L 699.2 365.9 L 699.1 365.9 L 694 367.7 L 693 369.3 L 689.7 374.2 L 684.6 379.3 L 679.3 384.2 L 677.9 385.1 L 671.9 389.1 L 670.7 389.9 L 666.6 391.6 L 665.2 392.2 L 663.7 395.6 L 662.3 397.5 L 659.3 400.8 L 656.1 403.5 L 654.9 404.4 L 653 405.9 L 650.5 407.3 L 649.9 407.6 L 648.8 408.2 L 648.4 408.3 L 646.5 409.3 L 645.3 409.9 L 645.1 410 L 645.2 411.1 L 645.4 414.7 L 644.9 417.4 L 644.7 419.5 L 644 421.9 L 643.6 423.6 L 643.2 425 L 643.1 425.5 L 643 426.1 L 642.7 428.9 L 642.7 429.1 L 642.5 431.4 L 642.4 433.8 L 642.1 435.4 L 641.8 436.9 L 641.8 437.2 L 641.6 438.5 L 640.6 440.9 L 641 442.5 L 641.1 444.6 L 641 446.1 L 641.1 448.1 L 640.9 450.2 L 640.8 452.9 L 640.8 457.2 L 640.3 460.1 L 639.9 461.2 L 638.7 465 L 639.1 467.8 L 639.1 469.1 L 639.2 471.1 L 639.4 475 L 639.6 480.2 L 639.6 483.5 L 639.4 486 L 639.3 486.3 L 638.7 488.4 L 639.4 491.1 L 639.7 493.7 L 640 496.9 L 639.8 499.6 L 639.8 502.4 L 639.6 505 L 639.3 507.7 L 638.9 510.8 L 638.3 514.1 L 638 517.1 L 637.3 520.4 L 636.5 523.5 L 635.5 526.2 L 633.7 529.2 L 632.1 532.5 L 630.7 536 L 630.5 536.7 L 628.3 540.7 L 625.9 544.4 L 623.7 547 L 620.6 549.5 L 620.5 550.8 L 620.2 553.3 L 619.9 555.2 L 619.1 557.9 L 618.4 559.8 L 617.3 559.5 L 616.1 560.8 L 615.5 561.2 L 614.4 561.2 L 613.8 562.7 L 612.7 563.9 L 612.5 564.1 L 611.3 565.8 L 609.9 567.7 L 607.9 569.6 L 606.5 571.1 L 606.1 571.6 L 604.6 572.7 L 604.1 573.1 L 602.5 574.4 L 600.5 575.7 L 599.1 577.1 L 596.5 578.3 L 596.1 580.1 L 595.5 582.1 L 595.3 582.9 L 594.1 585.1 L 592.7 587.3 L 591.1 589.6 L 589.2 592.7 L 586.8 595.4 L 584.8 597.9 L 582.6 600.6 L 579.8 603 L 578.1 604.8 L 576.2 607 L 574.2 608.9 L 572.1 610.6 L 570.3 612.2 L 570.2 612.3 L 568.1 613.5 L 566.6 614.9 L 564.4 616.4 L 562.5 617.6 L 559.4 619.3 L 553.7 621.8 L 553.4 622 L 548.8 624.2 L 544.7 625.4 L 540.8 626.3 L 536.6 627.1 L 534.6 627.2 L 532.2 627.3 L 528.2 627 L 528.1 627 L 525.5 626.3 L 523.8 626.7 L 521.6 627.3 L 517.3 628.3 L 514 629 L 510.7 629.3 L 510.3 629.4 L 507.8 629.5 L 506.3 629.5 L 502.7 629.8 L 499.2 629.4 L 496.3 629.5 L 493.6 629.3 L 490.3 629 L 488.6 629.7 L 487 630.4 L 484.6 631.1 L 481.6 631.8 L 478.5 632.3 L 475.4 632.8 L 473.4 632.8 L 469.8 632.6 L 467.4 632 L 465.6 633.4 L 463.8 634.2 L 461.3 635.4 L 458.3 635.9 L 454.9 636.9 L 451.9 637.2 L 447 638 L 442.9 638.5 L 438 638.9 L 436.7 638.9 L 434.2 639 L 431.5 638.9 L 428.5 638.5 L 424.7 637.9 L 422.4 637.5 L 420.5 637 L 419.4 635.9 L 416.9 635 L 415.6 634.5 L 414.1 634.1 L 411.9 632.9 L 410.6 632.5 L 408.5 631.4 L 406.7 630.1 L 405 628.6 L 404.3 628.1 L 403 627.2 L 400.9 625.5 L 398.6 623.7 L 396.7 621.7 L 395 620.1 L 393.2 618.3 L 391.6 616.1 L 390 613.5 L 388.7 611.7 L 387.2 609.8 L 386 607.7 L 385 605.2 L 383.8 603.3 L 383.1 600.9 L 382.3 598.6 L 381.6 596 L 381.1 593.9 L 380.6 591.2 L 380.4 589.3 L 380.2 587.4 L 380.2 585.4 L 380.3 584 L 380.3 583.5 L 380.4 581.1 L 380.5 579 L 380.8 577.5 L 381 575.3 L 381.2 573.5 L 381.5 572.1 L 381.7 571.2 L 381.9 569.8 L 382.3 568.2 L 382.7 566.7 L 382.7 566.6 L 382.9 565.7 L 382.9 565.5 L 383.3 564.2 L 383.7 562.7 L 383.8 562.3 L 384.1 561.2 L 384.3 561.2 L 385.2 561.2 L 385.5 561.2 L 385.7 560.6 L 386 560 L 386.4 559 L 386.6 558.5 L 388.1 555.2 L 388.9 553.7 L 389.7 552 L 391.5 548.6 L 393.3 546.2 L 395.5 543.7 L 397.8 541 L 398 540.7 L 400 538.6 L 400.8 537.5 L 400.5 536.9 L 399.1 534.3 L 398.9 533.7 L 398.2 532 L 397.1 528.9 L 395.9 525.6 L 395.5 523.2 L 395.2 521.4 L 394.9 519.5 L 394.9 519.4 L 394.8 519.2 L 394.8 519.1 L 394.7 518 L 394.3 514.4 L 394.6 510.7 L 394.8 509.3 L 392.8 508.3 L 390.5 507.1 L 386.8 504.3 L 384.1 501.8 L 381.3 498.6 L 378.7 495.1 L 376.3 491.9 L 374.3 489.3 L 372.2 485.8 L 370.2 481.1 L 370.1 480.7 L 369.1 477.4 L 368.1 473.7 L 367.4 470.8 L 367.3 469.4 L 367 467.7 L 366.8 463.9 L 366.7 460.3 L 366.6 458.7 L 366.4 456.5 L 366.3 453 L 366.6 450.2 L 367 447 L 367.6 444.4 L 368.3 441.4 L 369.2 438.8 L 370.4 435.9 L 371.3 433.9 L 371.4 430 L 371.7 427.5 L 371.7 427.2 L 372 425.4 L 372.4 423.7 L 372.9 422.6 L 373.9 419.9 L 374.8 417.4 L 373.8 417.4 L 374.2 415.8 L 374.3 415.5 L 374.8 414.5 L 375.3 413 L 375.8 412.1 L 376.5 410.9 L 376.9 410.4 L 377.1 410.2 L 378.2 409 L 379.2 407.4 L 379.8 406.6 L 380.3 405.9 L 381.7 404.1 L 383.2 398.8 L 383.6 397.3 L 382.7 396.4 L 380.3 394.3 L 379.9 393.9 L 377.5 391.9 L 374.5 389.3 L 372.9 387.8 L 372.1 387.1 L 370.6 385.5 L 369.7 384.5 L 367.5 382 L 365.1 378.8 L 363.8 377.4 L 362.2 375.8 L 360.3 372.6 L 358.5 369.1 L 357.1 366.2 L 355.8 363 L 354.4 359.1 L 353.2 354.6 L 352.3 350.6 L 351.8 348.1 L 351.7 347.3 L 351.1 343.8 L 350.9 340.2 L 350.7 337.5 L 350.6 336.5 L 350.5 333.3 Z" fill="#d9e1ea" stroke="#9aa9bc" stroke-width="1" fill-rule="evenodd"/>
  <path d="M 350.5 333.3 L 350.6 329.9 L 350.9 328.7 L 351.3 326.9 L 351.9 323.4 L 352.7 319.1 L 353.7 315.3 L 355.1 311.8 L 356.9 308.2 L 358.4 305.6 L 359.4 304 L 360.1 302.8 L 362.6 299.4 L 364.3 296.8 L 365.3 295.3 L 367.4 293.3 L 369.1 291.6 L 370.1 290.4 L 371 289.4 L 372.8 287.3 L 375 284.5 L 376.5 283 L 378.9 280.6 L 381 279 L 383.4 277.2 L 384.1 276.8 L 384.8 276.4 L 386.9 275.2 L 388.6 274.4 L 390.3 273.5 L 393 270.7 L 396.5 267.5 L 400.4 264.7 L 403.9 261.7 L 407.5 259.8 L 410 258.4 L 415.4 256.6 L 419.4 255.2 L 426.1 254.4 L 433.3 253.3 L 440.5 253 L 448.3 253.6 L 456 254.4 L 461.1 255.5 L 462.1 256 L 466.1 253.1 L 470.5 250.9 L 472.8 249.7 L 477.3 247.3 L 484.3 244 L 489.4 242.2 L 490.4 241.9 L 492.3 241.2 L 495.6 240.1 L 498 239.8 L 499.9 239.5 L 501.4 239.4 L 501.7 239.3 L 505.9 239.2 L 507.4 239.2 L 509 239.3 L 511.3 239.4 L 513.8 240.1 L 513.8 240.1 L 515.3 239.6 L 518.2 238.9 L 521.6 238 L 527 237.2 L 528.1 237.1 L 530 237 L 531.9 236.9 L 534 234.5 L 539.8 227.7 L 544.6 223.2 L 545.3 222.5 L 548.6 220 L 550.6 218.5 L 551 218.3 L 555.7 215.4 L 557.1 214.8 L 559.4 213.7 L 559.9 212.8 L 561.4 210.1 L 561.9 209.2 L 563.6 204.7 L 567.1 199 L 567.2 198.6 L 568.8 193.4 L 570.5 188.3 L 573.7 182.6 L 575.8 178.3 L 578.2 175.2 L 581.2 171.3 L 584.8 167.8 L 586.1 166.6 L 588.1 162.1 L 590.1 159.9 L 590.3 157.6 L 590.6 154.7 L 591 150.9 L 591.8 145.9 L 593.8 140.8 L 594.2 139.7 L 593.8 134.4 L 594.2 129.5 L 595.7 123 L 597.3 116.1 L 598.3 111.8 L 599.6 108.1 L 601.2 102.2 L 603.7 96.9 L 607.1 91.7 L 607.5 91.1 L 611.5 86.5 L 615.4 82.1 L 617.3 80 L 618 78.6 L 619.5 75.5 L 622.2 70.2 L 625.2 65.8 L 625.3 65.6 L 628.7 61.1 L 633.7 56.1 L 641.1 50.1 L 645.7 46.7 L 652.4 42.9 L 658.4 40 L 659.7 39.5 L 666 37.3 L 673.7 36.2 L 675.3 36 L 683 36.4 L 691.8 37.9 L 697.8 39.2 L 699.3 39.3 L 704.5 40.8 L 707.7 42 L 710 42.8 L 715.2 45.2 L 722 49 L 728.8 53.8 L 735.2 57.7 L 741.4 62.7 L 746.4 67.8 L 750 72.9 L 754 79.8 L 757.3 82.7 L 761.8 86.9 L 768.6 93.7 L 772.7 100.1 L 780.5 100.5 L 788.2 100.7 L 789 100.8 L 796.5 102.1 L 803.5 104 L 812 107.3 L 818.6 110.9 L 821.1 113 L 824.4 115.9 L 825.2 116.6 L 833.5 125.8 L 834.3 126.7 L 835.8 129.5 L 836.1 129.5 L 836.7 129.5 L 836.9 129.5 L 837.5 130 L 838 130.4 L 838.9 131.7 L 839.3 132.3 L 842.7 137.4 L 844.9 143.7 L 844.9 143.9 L 846.5 149.8 L 847.4 154.1 L 848.1 158.1 L 849.1 163.1 L 849.5 168.5 L 848.4 174.2 L 846.8 180.3 L 845.9 182 L 844.5 184.8 L 842.7 188.7 L 839.3 193.1 L 838.6 193.3 L 838.7 194.2 L 838.7 194.7 L 838.5 197.1 L 838 199.1 L 837.7 200.2 L 837.6 200.7 L 836.7 203.1 L 835.8 205.4 L 835.5 206.1 L 834.6 208.2 L 833.4 210.8 L 832 213.4 L 829.7 216.6 L 827.5 219.2 L 827.1 221.1 L 826.8 222.9 L 825.8 226.4 L 825.8 226.8 L 824.9 230.9 L 824.8 231.4 L 823.3 235.6 L 822.2 239.6 L 821 242.6 L 820.8 242.9 L 819.3 245.6 L 818.8 246.5 L 817.8 248.1 L 816 250.9 L 814.9 255.3 L 813.5 260.6 L 812.2 265.7 L 810.4 269 L 809.9 269.9 L 807.9 273.5 L 806.3 275.8 L 804.6 278.5 L 803 280.7 L 801.4 282.3 L 800.8 283.4 L 798.6 286.2 L 797 287.8 L 794.9 290.3 L 792.3 293.6 L 790.3 295.3 L 787.8 297.8 L 785.2 299.5 L 782.8 300.8 L 779.6 303 L 776.8 304.9 L 773.4 306.3 L 770.1 307.4 L 767.6 308.4 L 763.4 308.8 L 762.1 311.1 L 759.9 313.6 L 758.3 316 L 756.2 318.2 L 755.8 318.5 L 753.2 321.3 L 750.9 323.7 L 748.9 326.1 L 746.6 328.3 L 743.7 330.6 L 741.1 332.5 L 738.4 333.9 L 737.6 334.5 L 735.7 335.7 L 733.2 337.1 L 730.5 338.1 L 728.5 338.8 L 726 339.5 L 724.8 341.2 L 722.8 344.5 L 720.7 346.7 L 718.9 348.5 L 716.6 350.9 L 714.1 354 L 712.3 355.6 L 710 357.8 L 707.4 360 L 707.2 360.2 L 704.8 362.2 L 702.7 363.7 L 699.3 366.1 L 699.2 365.9 L 699.1 365.9 L 694 367.7 L 693 369.3 L 689.7 374.2 L 684.6 379.3 L 679.3 384.2 L 677.9 385.1 L 671.9 389.1 L 670.7 389.9 L 666.6 391.6 L 665.2 392.2 L 663.7 395.6 L 662.3 397.5 L 659.3 400.8 L 656.1 403.5 L 654.9 404.4 L 653 405.9 L 650.5 407.3 L 649.9 407.6 L 648.8 408.2 L 648.4 408.3 L 646.5 409.3 L 645.3 409.9 L 645.1 410 L 645.2 411.1 L 645.4 414.7 L 644.9 417.4 L 644.7 419.5 L 644 421.9 L 643.6 423.6 L 643.2 425 L 643.1 425.5 L 643 426.1 L 642.7 428.9 L 642.7 429.1 L 642.5 431.4 L 642.4 433.8 L 642.1 435.4 L 641.8 436.9 L 641.8 437.2 L 641.6 438.5 L 640.6 440.9 L 641 442.5 L 641.1 444.6 L 641 446.1 L 641.1 448.1 L 640.9 450.2 L 640.8 452.9 L 640.8 457.2 L 640.3 460.1 L 639.9 461.2 L 638.7 465 L 639.1 467.8 L 639.1 469.1 L 639.2 471.1 L 639.4 475 L 639.6 480.2 L 639.6 483.5 L 639.4 486 L 639.3 486.3 L 638.7 488.4 L 639.4 491.1 L 639.7 493.7 L 640 496.9 L 639.8 499.6 L 639.8 502.4 L 639.6 505 L 639.3 507.7 L 638.9 510.8 L 638.3 514.1 L 638 517.1 L 637.3 520.4 L 636.5 523.5 L 635.5 526.2 L 633.7 529.2 L 632.1 532.5 L 630.7 536 L 630.5 536.7 L 628.3 540.7 L 625.9 544.4 L 623.7 547 L 620.6 549.5 L 620.5 550.8 L 620.2 553.3 L 619.9 555.2 L 619.1 557.9 L 618.4 559.8 L 617.3 559.5 L 616.1 560.8 L 615.5 561.2 L 614.4 561.2 L 613.8 562.7 L 612.7 563.9 L 612.5 564.1 L 611.3 565.8 L 609.9 567.7 L 607.9 569.6 L 606.5 571.1 L 606.1 571.6 L 604.6 572.7 L 604.1 573.1 L 602.5 574.4 L 600.5 575.7 L 599.1 577.1 L 596.5 578.3 L 596.1 580.1 L 595.5 582.1 L 595.3 582.9 L 594.1 585.1 L 592.7 587.3 L 591.1 589.6 L 589.2 592.7 L 586.8 595.4 L 584.8 597.9 L 582.6 600.6 L 579.8 603 L 578.1 604.8 L 576.2 607 L 574.2 608.9 L 572.1 610.6 L 570.3 612.2 L 570.2 612.3 L 568.1 613.5 L 566.6 614.9 L 564.4 616.4 L 562.5 617.6 L 559.4 619.3 L 553.7 621.8 L 553.4 622 L 548.8 624.2 L 544.7 625.4 L 540.8 626.3 L 536.6 627.1 L 534.6 627.2 L 532.2 627.3 L 528.2 627 L 528.1 627 L 525.5 626.3 L 523.8 626.7 L 521.6 627.3 L 517.3 628.3 L 514 629 L 510.7 629.3 L 510.3 629.4 L 507.8 629.5 L 506.3 629.5 L 502.7 629.8 L 499.2 629.4 L 496.3 629.5 L 493.6 629.3 L 490.3 629 L 488.6 629.7 L 487 630.4 L 484.6 631.1 L 481.6 631.8 L 478.5 632.3 L 475.4 632.8 L 473.4 632.8 L 469.8 632.6 L 467.4 632 L 465.6 633.4 L 463.8 634.2 L 461.3 635.4 L 458.3 635.9 L 454.9 636.9 L 451.9 637.2 L 447 638 L 442.9 638.5 L 438 638.9 L 436.7 638.9 L 434.2 639 L 431.5 638.9 L 428.5 638.5 L 424.7 637.9 L 422.4 637.5 L 420.5 637 L 419.4 635.9 L 416.9 635 L 415.6 634.5 L 414.1 634.1 L 411.9 632.9 L 410.6 632.5 L 408.5 631.4 L 406.7 630.1 L 405 628.6 L 404.3 628.1 L 403 627.2 L 400.9 625.5 L 398.6 623.7 L 396.7 621.7 L 395 620.1 L 393.2 618.3 L 391.6 616.1 L 390 613.5 L 388.7 611.7 L 387.2 609.8 L 386 607.7 L 385 605.2 L 383.8 603.3 L 383.1 600.9 L 382.3 598.6 L 381.6 596 L 381.1 593.9 L 380.6 591.2 L 380.4 589.3 L 380.2 587.4 L 380.2 585.4 L 380.3 584 L 380.3 583.5 L 380.4 581.1 L 380.5 579 L 380.8 577.5 L 381 575.3 L 381.2 573.5 L 381.5 572.1 L 381.7 571.2 L 381.9 569.8 L 382.3 568.2 L 382.7 566.7 L 382.7 566.6 L 382.9 565.7 L 382.9 565.5 L 383.3 564.2 L 383.7 562.7 L 383.8 562.3 L 384.1 561.2 L 384.3 561.2 L 385.2 561.2 L 385.5 561.2 L 385.7 560.6 L 386 560 L 386.4 559 L 386.6 558.5 L 388.1 555.2 L 388.9 553.7 L 389.7 552 L 391.5 548.6 L 393.3 546.2 L 395.5 543.7 L 397.8 541 L 398 540.7 L 400 538.6 L 400.8 537.5 L 400.5 536.9 L 399.1 534.3 L 398.9 533.7 L 398.2 532 L 397.1 528.9 L 395.9 525.6 L 395.5 523.2 L 395.2 521.4 L 394.9 519.5 L 394.9 519.4 L 394.8 519.2 L 394.8 519.1 L 394.7 518 L 394.3 514.4 L 394.6 510.7 L 394.8 509.3 L 392.8 508.3 L 390.5 507.1 L 386.8 504.3 L 384.1 501.8 L 381.3 498.6 L 378.7 495.1 L 376.3 491.9 L 374.3 489.3 L 372.2 485.8 L 370.2 481.1 L 370.1 480.7 L 369.1 477.4 L 368.1 473.7 L 367.4 470.8 L 367.3 469.4 L 367 467.7 L 366.8 463.9 L 366.7 460.3 L 366.6 458.7 L 366.4 456.5 L 366.3 453 L 366.6 450.2 L 367 447 L 367.6 444.4 L 368.3 441.4 L 369.2 438.8 L 370.4 435.9 L 371.3 433.9 L 371.4 430 L 371.7 427.5 L 371.7 427.2 L 372 425.4 L 372.4 423.7 L 372.9 422.6 L 373.9 419.9 L 374.8 417.4 L 373.8 417.4 L 374.2 415.8 L 374.3 415.5 L 374.8 414.5 L 375.3 413 L 375.8 412.1 L 376.5 410.9 L 376.9 410.4 L 377.1 410.2 L 378.2 409 L 379.2 407.4 L 379.8 406.6 L 380.3 405.9 L 381.7 404.1 L 383.2 398.8 L 383.6 397.3 L 382.7 396.4 L 380.3 394.3 L 379.9 393.9 L 377.5 391.9 L 374.5 389.3 L 372.9 387.8 L 372.1 387.1 L 370.6 385.5 L 369.7 384.5 L 367.5 382 L 365.1 378.8 L 363.8 377.4 L 362.2 375.8 L 360.3 372.6 L 358.5 369.1 L 357.1 366.2 L 355.8 363 L 354.4 359.1 L 353.2 354.6 L 352.3 350.6 L 351.8 348.1 L 351.7 347.3 L 351.1 343.8 L 350.9 340.2 L 350.7 337.5 L 350.6 336.5 L 350.5 333.3 Z" fill="#1e5ea9" fill-opacity="0.86" stroke="#0b3b75" stroke-width="1.2" fill-rule="evenodd"/>
</svg>
