<?xml version="1.0" encoding="UTF-8"?>
<svg xmlns="http://www.w3.org/2000/svg" width="1200" height="675" viewBox="0 0 1200 675" role="img" aria-label="MP-0 congressional district map">
  <path d="M 598.6 565.3 L 598.8 564.2 L 599.2 563.3 L 599.3 563.1 L 599.3 563 L 600.5 561.2 L 601.4 560.5 L 601.6 560.4 L 601.6 560.4 L 603.8 559.3 L 603.8 559.3 L 605 558.6 L 606 558.1 L 606.9 557.9 L 606.5 557.6 L 605.3 556.8 L 605 556.6 L 604.5 555.8 L 603.6 554.6 L 602.8 552.8 L 602.8 552.8 L 602.6 552 L 602.6 551.9 L 602.6 549.6 L 603 546.9 L 603 546.9 L 604.4 544.1 L 604.5 543.9 L 604.5 543.9 L 607.8 540.7 L 609.1 540.4 L 613.1 539.7 L 614.4 539.4 L 614.4 539.3 L 614.4 539.2 L 614.9 538.8 L 615 538.6 L 615 538.6 L 615.1 538.5 L 615.1 538.5 L 615.1 538.5 L 615.2 538.5 L 615.2 538.4 L 615.2 538.4 L 615.3 538.3 L 615.4 538.2 L 615.5 538.1 L 615.6 538 L 615.8 537.8 L 615.8 537.7 L 615.8 537.7 L 615.9 537.7 L 615.9 537.7 L 616.1 537.4 L 616.2 537.3 L 616.7 536.4 L 616.9 536.1 L 616.9 536 L 616.9 535.9 L 616.9 535.9 L 617 535.8 L 617 535.7 L 617.2 535.2 L 617.3 535.1 L 617.3 535 L 617.3 534.9 L 617.4 534.9 L 617.5 534.4 L 617.8 534.1 L 617.8 534.1 L 617.8 532.4 L 617.8 531.5 L 617.8 531 L 617.9 530.6 L 617.9 530.4 L 618.2 529.6 L 618.3 529.4 L 618.5 529.2 L 619.6 527.1 L 620.7 525.6 L 620.7 525.6 L 620.7 525.5 L 620.8 525.4 L 621.2 524.8 L 622 523.7 L 622.7 523 L 623.3 522.5 L 623.4 522.4 L 624.5 521.7 L 626 520.4 L 627 519.9 L 627.9 519.6 L 629.3 519.8 L 630.6 519.8 L 631.4 520 L 632.3 520.1 L 633.5 521 L 633.5 521.1 L 634.2 521.6 L 634.3 521.7 L 635.6 523.5 L 636.1 524 L 636.5 525.3 L 637 526.3 L 637.2 527.2 L 636.9 528.6 L 636.6 529.2 L 636.6 529.4 L 635.7 532.1 L 634.9 534.1 L 634.7 534.3 L 634.7 534.3 L 634.7 534.3 L 634.6 534.5 L 634.6 535.6 L 634.6 535.9 L 634.5 536 L 634.5 536.1 L 634.5 536.3 L 634.5 536.3 L 634.5 536.8 L 634.5 536.8 L 634.3 538 L 634.2 538.4 L 634.6 538.9 L 634.3 539.7 L 633.3 540.2 L 633.2 540.4 L 632.9 540.8 L 632.4 540.9 L 631.8 541.1 L 631.4 541.1 L 630.9 541.1 L 631 541.5 L 630.9 541.9 L 630.8 542.3 L 630.7 542.6 L 630.6 542.8 L 630.2 543.2 L 629.9 543.6 L 629.5 544 L 629 544.4 L 628.4 544.8 L 627.9 545.1 L 627.3 545.3 L 626.6 545.5 L 625.6 545.6 L 624.6 545.7 L 623.5 545.9 L 623.4 545.9 L 623.3 546 L 623.3 546 L 622.8 549.8 L 622.8 549.9 L 622.8 549.9 L 622.7 550.1 L 622.7 550.3 L 622.7 550.3 L 622.6 550.7 L 622.6 551.5 L 622.6 551.6 L 622.7 552 L 622.7 552 L 622.9 552.7 L 622.9 552.9 L 622.9 553 L 623 553.4 L 623 553.5 L 623.1 553.7 L 623.1 554.6 L 622.7 555.7 L 622.5 556.4 L 621.6 559.5 L 619.8 561.5 L 619.7 561.7 L 619 562.7 L 618.5 563.3 L 618.4 563.5 L 617.5 564.3 L 616.4 564.7 L 615.1 564.8 L 614.8 564.9 L 614.4 565.6 L 613.8 567.2 L 613 568.4 L 612.5 568.9 L 612.3 569 L 611.6 570 L 609.4 571.8 L 606.8 572.5 L 604.3 572.6 L 602.1 572 L 601.7 571.5 L 601.7 571.5 L 601.6 571.4 L 601.5 571.3 L 601.4 571.2 L 600.9 571 L 599.9 570.2 L 599 568.4 L 598.6 566.7 L 598.6 565.3 Z M 645.3 458.6 L 646.4 456 L 646.4 456 L 647.8 454.2 L 649.6 452.8 L 653.3 452.4 L 653.4 452.5 L 656.1 453.5 L 657.2 454.5 L 657.3 454.7 L 658.4 456.5 L 658.6 459.2 L 658.5 459.6 L 658.3 460.7 L 658 461.3 L 657.6 461.8 L 657.6 461.8 L 656.8 463 L 656.5 463.1 L 656.2 463.3 L 656.1 463.4 L 653.7 465 L 652.8 465.5 L 649 466 L 646.2 464 L 646.1 463.9 L 645.4 461.3 L 645.4 460.7 L 645.3 459.2 L 645.3 458.6 Z M 624.5 338.6 L 624.9 337.8 L 624.9 337.8 L 625.4 337.2 L 625.9 336.5 L 626.6 335.8 L 626.8 335.6 L 627.2 335.2 L 627.8 334.7 L 627.9 334.6 L 628.5 334.4 L 629.1 334.2 L 629.7 334.1 L 630.1 333.8 L 630.4 333.7 L 631.5 333.4 L 632.1 333.4 L 632.6 333.5 L 632.7 333.6 L 632.9 333.8 L 633.3 333.9 L 633.7 334 L 634.2 334.2 L 634.6 334.2 L 634.8 334.3 L 635.8 334.4 L 636.1 334.5 L 636.4 335 L 636.5 335.1 L 636.8 335.8 L 637.8 336 L 638.3 336.5 L 638.8 337.3 L 638.8 337.5 L 639.1 338.1 L 639.6 338.9 L 638.7 339.6 L 638.8 340.7 L 638.7 341.5 L 638.7 342.3 L 638.6 342.9 L 638.4 343.7 L 638 344.5 L 637.5 345.1 L 637.4 345.3 L 636.7 346.2 L 636 346.6 L 635.7 347.2 L 635.6 347.7 L 635.6 347.8 L 634.9 348.2 L 634.6 348.4 L 634.5 348.4 L 634.2 348.6 L 633.4 349 L 632.7 349.2 L 632.6 349.3 L 631.7 349.5 L 630.9 349.3 L 630 349.2 L 629.7 348.9 L 628.9 348.4 L 628.4 348.1 L 628.1 348 L 627.7 347.6 L 627.1 347.2 L 626.9 346.8 L 626.6 346.4 L 626.4 346.3 L 626.1 345.8 L 625.5 345.2 L 625.4 345.1 L 625.1 344.3 L 624.7 343.5 L 624.6 342.8 L 624.4 342.1 L 624.4 341.4 L 624.3 340.4 L 624.6 339.9 L 624.3 339.3 L 624.5 338.6 Z M 623 315.2 L 623 315 L 623.3 314.4 L 623.5 314.1 L 624 313.2 L 624.2 312.8 L 625.1 311 L 625.4 310.5 L 626.4 308.9 L 627.6 307.4 L 630.1 306.8 L 631.7 306.8 L 632.6 306.8 L 634.2 307.3 L 635.6 307.7 L 635.8 307.8 L 637.3 308.9 L 637.9 310.1 L 638.1 311.3 L 638.4 312.8 L 638.5 315.1 L 638.5 315.2 L 638 318.1 L 637.2 319.9 L 636.1 321.2 L 636.1 321.3 L 634.2 322.4 L 633.6 322.7 L 631.8 322.9 L 631.7 322.9 L 630.5 323.1 L 629.2 323 L 627.7 322.4 L 625.6 321 L 624.9 320.4 L 624 319.5 L 623.3 318.4 L 623.2 318.3 L 623.2 318.1 L 623.1 317.9 L 623.1 317.7 L 623 317.3 L 623 317.1 L 623 316.2 L 623 315.2 Z M 619 395.3 L 619.1 394.2 L 619.6 392.9 L 619.8 392.8 L 620.3 392.4 L 620.4 392.3 L 620.7 392.1 L 620.8 391.6 L 621 391.6 L 621.6 391.1 L 622.7 390.6 L 623.3 390.3 L 625 389.5 L 625.3 389.4 L 627 389.1 L 629.7 390 L 631.2 391.3 L 631.4 391.5 L 632.7 392.8 L 632.7 392.9 L 633.6 393.7 L 633.6 395.2 L 633.6 396.4 L 633.5 398.4 L 633 400 L 632.4 401.1 L 631.3 402.2 L 629.6 403.2 L 627.9 403.7 L 626.8 403.8 L 626 403.8 L 624.4 403.7 L 623.3 403 L 622.2 402.9 L 621.1 402.1 L 620.8 401.9 L 619.9 400.6 L 619.3 398.6 L 618.9 396.5 L 619 395.3 Z M 614 273.1 L 614.2 272.2 L 614.4 271.7 L 614.6 270.9 L 614.9 270.1 L 614.9 269.4 L 614.9 269.4 L 615.3 268.4 L 615.4 267.5 L 615.7 266.9 L 616.1 265.8 L 616.8 265.1 L 617.2 264.7 L 617.2 264.7 L 617.6 264.3 L 617.6 264 L 617.6 262.7 L 617.7 261.9 L 617.9 261.5 L 618.1 261 L 618.5 260.5 L 618.9 260 L 619.4 259.6 L 620.3 258.8 L 620.9 258.4 L 621.1 258.2 L 621.7 257.8 L 622.4 257.2 L 623.3 256.7 L 624.1 256.2 L 624.8 256.1 L 625.6 256.2 L 625.7 256.2 L 626.6 256.1 L 627.1 256.1 L 628.2 256.4 L 629.2 256.4 L 629.8 256.5 L 631.1 256.9 L 631.9 257.4 L 632.5 257.9 L 632.7 258.3 L 632.9 258.5 L 633.3 259.2 L 633.8 259.9 L 634.2 260.5 L 634.7 261.3 L 634.8 261.7 L 635 262.1 L 635.3 262.9 L 635.4 263.7 L 635.6 264.2 L 635.3 264.8 L 635.3 265.2 L 635.3 265.6 L 635.3 265.7 L 635.1 266.3 L 635.1 266.9 L 635.1 267.3 L 635 267.7 L 634.9 268.4 L 634.5 269.6 L 634.4 269.8 L 634.2 270.5 L 633.7 271.4 L 633.3 272.1 L 632.8 272.6 L 632.4 273.1 L 631.5 274.2 L 631.1 274.4 L 630.5 274.6 L 629.4 275.2 L 628.4 275.7 L 627.8 276.3 L 627 277 L 627 277 L 626.2 277.5 L 625.7 278.1 L 625 278.4 L 623.5 279.3 L 622.8 279.7 L 620.8 279.7 L 618.5 279.3 L 618.5 279.3 L 617 278.4 L 616.2 277.9 L 615.7 277.6 L 615.5 277.2 L 615.2 276.7 L 615.2 276.7 L 615.1 276.1 L 614.8 275.7 L 614.5 274.9 L 614.1 274.2 L 614.1 273.6 L 614 273.1 Z M 606.9 206.7 L 607 205.4 L 608 202.8 L 610 199.5 L 610.2 199.3 L 610.8 198.6 L 612.3 197.8 L 612.7 197.7 L 613.6 197.5 L 613.9 197.4 L 614.2 197.4 L 615.3 197.3 L 615.6 197.2 L 616.8 197.3 L 618.3 197.6 L 619.3 197.8 L 619.8 198 L 620.3 198.4 L 621.1 199.2 L 622.6 201.2 L 623.3 202.2 L 624 203.9 L 624.3 204.6 L 624.6 205.1 L 624.9 206.7 L 625.1 208.3 L 625 209.3 L 625 209.5 L 624.5 211 L 624.4 211.2 L 624.2 211.4 L 624.1 211.6 L 623.5 212.6 L 623.3 213 L 622.1 215.1 L 621.8 215.3 L 621.4 215.6 L 618.9 217.2 L 617.6 217.8 L 617.4 217.9 L 616.5 217.7 L 615.5 217.7 L 614.9 217.6 L 614.7 217.5 L 613.4 216.9 L 612.3 216.5 L 610.9 215.6 L 610.9 215.5 L 609.5 213.7 L 608.1 211.2 L 608.1 211 L 607.6 209.3 L 607.5 209.2 L 606.9 206.7 L 606.9 206.7 Z M 606.6 427.2 L 607.6 424.7 L 609.1 423.4 L 609.9 422.7 L 612.3 421 L 614.5 420.3 L 614.9 420.2 L 616.8 420.1 L 620.7 420.4 L 621.2 420.6 L 623.3 421.4 L 624.1 422.4 L 624.6 422.8 L 625.1 423.7 L 625.7 425.9 L 625.9 426.4 L 626 427.1 L 626.1 428.5 L 626.1 428.5 L 626.1 428.9 L 625.2 430.9 L 624.8 431.8 L 624.3 432.3 L 623.3 433.2 L 621.8 434.6 L 621.4 434.8 L 621 435 L 619.6 435.8 L 619.1 436.1 L 618.3 436.3 L 616.9 436.4 L 614.6 436.4 L 614.5 436.3 L 612.3 435.7 L 610.5 434.9 L 608.8 433.9 L 608 433.4 L 606.7 430.2 L 606.6 427.2 Z M 584.5 121.5 L 585.3 120.1 L 586.5 118.7 L 586.6 118.6 L 587.5 117.6 L 588.5 116.7 L 588.8 116.4 L 589.1 116.1 L 589.8 115.8 L 590 115.8 L 590.5 115.7 L 591.4 115.4 L 591.7 115.4 L 592.4 115.4 L 593.6 115.5 L 594.8 115.8 L 595.3 116 L 595.8 116.2 L 596.3 116.7 L 596.3 116.7 L 596.9 117.2 L 597.8 117.9 L 598.5 118.5 L 599 118.9 L 599.6 119.9 L 600.5 121 L 600.8 121.8 L 600.9 122.4 L 601 123.2 L 600.6 124.1 L 600.4 125.4 L 600 125.9 L 599.8 126.2 L 599.3 127.1 L 598.6 128.1 L 598.5 128.3 L 597.5 130.1 L 597.5 130.2 L 595.1 131.5 L 592.7 131.7 L 592.3 131.6 L 590.5 131.1 L 590 130.9 L 589.5 130.7 L 588.9 130.4 L 587.7 129.9 L 586.7 129.3 L 586.6 129.3 L 586.3 128.3 L 586.1 128.1 L 585.8 127.4 L 585.2 125.9 L 585.1 125.7 L 584.8 124.2 L 584.3 122.8 L 584.5 121.5 Z M 569.2 89.8 L 569.6 88.3 L 570.5 86.4 L 571.8 85.5 L 573.3 84.5 L 575.5 84 L 576.3 84 L 578.1 83.9 L 579.6 84.3 L 580.9 84.6 L 581.7 85.2 L 582.7 85.9 L 583.9 87.3 L 584.7 89 L 585.2 90.4 L 585 91.2 L 584.8 91.9 L 584.3 93.1 L 584.4 93.5 L 584.1 94.1 L 583.7 94.7 L 583.3 95.4 L 582.4 96.4 L 581.5 97.1 L 580.7 97.5 L 580.5 97.6 L 579.6 98.3 L 579.4 98.3 L 577.9 98.3 L 577.2 98.3 L 576.2 98.4 L 575.2 98.3 L 573.7 97.9 L 572.8 97.3 L 572.2 96.5 L 571.3 95.6 L 571.1 95.4 L 570.2 94.8 L 569.9 93.5 L 569.6 92.1 L 569.3 90 L 569.2 89.8 Z M 562.9 631 L 563.2 629.9 L 563.3 629.8 L 564.3 628 L 565.7 627.1 L 565.7 626.9 L 565.5 626.2 L 565.6 625.6 L 565.6 625.4 L 565.7 624.8 L 566.7 623.6 L 567.7 622.7 L 568.7 622.2 L 568.9 622.1 L 570.2 621.4 L 571.4 621.1 L 573.3 621.1 L 574.1 620.4 L 574.9 619.8 L 575.3 619.4 L 576.6 618.7 L 576.7 618.7 L 578.3 618.3 L 579.5 618.2 L 579.9 618.3 L 580.8 618.3 L 581.4 618.6 L 581.9 619.4 L 582.5 619.3 L 582.7 619.3 L 584.3 619.2 L 584.6 619.2 L 585 619.3 L 585.6 619.4 L 586 619.6 L 586.4 619.8 L 586.5 619.8 L 588.4 620.3 L 589.6 621.9 L 590 622.9 L 590.4 624.2 L 590.3 626.3 L 590.2 627 L 590.1 627 L 590 627.2 L 589.5 628 L 588.2 630 L 588.3 630.2 L 588.4 631 L 588.3 631.4 L 587.4 632.5 L 586.2 633.4 L 585 633.8 L 583.8 634 L 583.6 634.7 L 582.6 635.9 L 581.6 636.5 L 580.5 637 L 580 637.1 L 579.8 637.1 L 579.6 637.2 L 579 637.3 L 578.1 637.6 L 577.2 637.4 L 576.9 637.3 L 576.3 637.6 L 574.9 638.4 L 573.3 639 L 571.7 638.4 L 570.9 638.4 L 569.9 638.8 L 569.4 638.7 L 568.8 638.3 L 568.6 638.3 L 567.5 638.2 L 566.2 638.1 L 564.5 636.9 L 564.4 636.7 L 563.7 635.7 L 563.6 635.6 L 563.4 635.2 L 563.4 635.1 L 563.3 634.9 L 563.3 634.8 L 562.9 633.4 L 562.8 632 L 562.9 631 Z M 541.6 41 L 542.1 39.6 L 543.1 38 L 544.2 37.1 L 544.3 37 L 545.7 36.3 L 546.8 36.2 L 548.9 36 L 550.2 36.1 L 551 36.2 L 552.6 36.8 L 554.1 38.1 L 555.2 39.3 L 555.7 41.1 L 555.9 42.5 L 555.9 43.6 L 555.9 44.5 L 555.2 45.9 L 554.5 46.9 L 554.1 47.3 L 553.6 47.8 L 552.8 48.5 L 552.3 48.9 L 551.9 49.2 L 551.3 49.7 L 550.8 49.8 L 550 50 L 548.8 50.2 L 547.8 50.3 L 547.1 50.3 L 546.8 50.1 L 546.7 50.1 L 545.7 50 L 544.9 49.5 L 544.2 49.3 L 544.1 49.3 L 543.6 48.9 L 543 48.3 L 542.6 47.7 L 542.5 46.9 L 542.1 46.2 L 541.6 44.7 L 541.6 44.3 L 541.4 42.7 L 541.6 41 Z" fill="#d9e1ea" stroke="#9aa9bc" stroke-width="1" fill-rule="evenodd"/>
  <path d="M 598.6 565.3 L 598.8 564.2 L 599.2 563.3 L 599.3 563.1 L 599.3 563 L 600.5 561.2 L 601.4 560.5 L 601.6 560.4 L 601.6 560.4 L 603.8 559.3 L 603.8 559.3 L 605 558.6 L 606 558.1 L 606.9 557.9 L 606.5 557.6 L 605.3 556.8 L 605 556.6 L 604.5 555.8 L 603.6 554.6 L 602.8 552.8 L 602.8 552.8 L 602.6 552 L 602.6 551.9 L 602.6 549.6 L 603 546.9 L 603 546.9 L 604.4 544.1 L 604.5 543.9 L 604.5 543.9 L 607.8 540.7 L 609.1 540.4 L 613.1 539.7 L 614.4 539.4 L 614.4 539.3 L 614.4 539.2 L 614.9 538.8 L 615 538.6 L 615 538.6 L 615.1 538.5 L 615.1 538.5 L 615.1 538.5 L 615.2 538.5 L 615.2 538.4 L 615.2 538.4 L 615.3 538.3 L 615.4 538.2 L 615.5 538.1 L 615.6 538 L 615.8 537.8 L 615.8 537.7 L 615.8 537.7 L 615.9 537.7 L 615.9 537.7 L 616.1 537.4 L 616.2 537.3 L 616.7 536.4 L 616.9 536.1 L 616.9 536 L 616.9 535.9 L 616.9 535.9 L 617 535.8 L 617 535.7 L 617.2 535.2 L 617.3 535.1 L 617.3 535 L 617.3 534.9 L 617.4 534.9 L 617.5 534.4 L 617.8 534.1 L 617.8 534.1 L 617.8 532.4 L 617.8 531.5 L 617.8 531 L 617.9 530.6 L 617.9 530.4 L 618.2 529.6 L 618.3 529.4 L 618.5 529.2 L 619.6 527.1 L 620.7 525.6 L 620.7 525.6 L 620.7 525.5 L 620.8 525.4 L 621.2 524.8 L 622 523.7 L 622.7 523 L 623.3 522.5 L 623.4 522.4 L 624.5 521.7 L 626 520.4 L 627 519.9 L 627.9 519.6 L 629.3 519.8 L 630.6 519.8 L 631.4 520 L 632.3 520.1 L 633.5 521 L 633.5 521.1 L 634.2 521.6 L 634.3 521.7 L 635.6 523.5 L 636.1 524 L 636.5 525.3 L 637 526.3 L 637.2 527.2 L 636.9 528.6 L 636.6 529.2 L 636.6 529.4 L 635.7 532.1 L 634.9 534.1 L 634.7 534.3 L 634.7 534.3 L 634.7 534.3 L 634.6 534.5 L 634.6 535.6 L 634.6 535.9 L 634.5 536 L 634.5 536.1 L 634.5 536.3 L 634.5 536.3 L 634.5 536.8 L 634.5 536.8 L 634.3 538 L 634.2 538.4 L 634.6 538.9 L 634.3 539.7 L 633.3 540.2 L 633.2 540.4 L 632.9 540.8 L 632.4 540.9 L 631.8 541.1 L 631.4 541.1 L 630.9 541.1 L 631 541.5 L 630.9 541.9 L 630.8 542.3 L 630.7 542.6 L 630.6 542.8 L 630.2 543.2 L 629.9 543.6 L 629.5 544 L 629 544.4 L 628.4 544.8 L 627.9 545.1 L 627.3 545.3 L 626.6 545.5 L 625.6 545.6 L 624.6 545.7 L 623.5 545.9 L 623.4 545.9 L 623.3 546 L 623.3 546 L 622.8 549.8 L 622.8 549.9 L 622.8 549.9 L 622.7 550.1 L 622.7 550.3 L 622.7 550.3 L 622.6 550.7 L 622.6 551.5 L 622.6 551.6 L 622.7 552 L 622.7 552 L 622.9 552.7 L 622.9 552.9 L 622.9 553 L 623 553.4 L 623 553.5 L 623.1 553.7 L 623.1 554.6 L 622.7 555.7 L 622.5 556.4 L 621.6 559.5 L 619.8 561.5 L 619.7 561.7 L 619 562.7 L 618.5 563.3 L 618.4 563.5 L 617.5 564.3 L 616.4 564.7 L 615.1 564.8 L 614.8 564.9 L 614.4 565.6 L 613.8 567.2 L 613 568.4 L 612.5 568.9 L 612.3 569 L 611.6 570 L 609.4 571.8 L 606.8 572.5 L 604.3 572.6 L 602.1 572 L 601.7 571.5 L 601.7 571.5 L 601.6 571.4 L 601.5 571.3 L 601.4 571.2 L 600.9 571 L 599.9 570.2 L 599 568.4 L 598.6 566.7 L 598.6 565.3 Z M 645.3 458.6 L 646.4 456 L 646.4 456 L 647.8 454.2 L 649.6 452.8 L 653.3 452.4 L 653.4 452.5 L 656.1 453.5 L 657.2 454.5 L 657.3 454.7 L 658.4 456.5 L 658.6 459.2 L 658.5 459.6 L 658.3 460.7 L 658 461.3 L 657.6 461.8 L 657.6 461.8 L 656.8 463 L 656.5 463.1 L 656.2 463.3 L 656.1 463.4 L 653.7 465 L 652.8 465.5 L 649 466 L 646.2 464 L 646.1 463.9 L 645.4 461.3 L 645.4 460.7 L 645.3 459.2 L 645.3 458.6 Z M 624.5 338.6 L 624.9 337.8 L 624.9 337.8 L 625.4 337.2 L 625.9 336.5 L 626.6 335.8 L 626.8 335.6 L 627.2 335.2 L 627.8 334.7 L 627.9 334.6 L 628.5 334.4 L 629.1 334.2 L 629.7 334.1 L 630.1 333.8 L 630.4 333.7 L 631.5 333.4 L 632.1 333.4 L 632.6 333.5 L 632.7 333.6 L 632.9 333.8 L 633.3 333.9 L 633.7 334 L 634.2 334.2 L 634.6 334.2 L 634.8 334.3 L 635.8 334.4 L 636.1 334.5 L 636.4 335 L 636.5 335.1 L 636.8 335.8 L 637.8 336 L 638.3 336.5 L 638.8 337.3 L 638.8 337.5 L 639.1 338.1 L 639.6 338.9 L 638.7 339.6 L 638.8 340.7 L 638.7 341.5 L 638.7 342.3 L 638.6 342.9 L 638.4 343.7 L 638 344.5 L 637.5 345.1 L 637.4 345.3 L 636.7 346.2 L 636 346.6 L 635.7 347.2 L 635.6 347.7 L 635.6 347.8 L 634.9 348.2 L 634.6 348.4 L 634.5 348.4 L 634.2 348.6 L 633.4 349 L 632.7 349.2 L 632.6 349.3 L 631.7 349.5 L 630.9 349.3 L 630 349.2 L 629.7 348.9 L 628.9 348.4 L 628.4 348.1 L 628.1 348 L 627.7 347.6 L 627.1 347.2 L 626.9 346.8 L 626.6 346.4 L 626.4 346.3 L 626.1 345.8 L 625.5 345.2 L 625.4 345.1 L 625.1 344.3 L 624.7 343.5 L 624.6 342.8 L 624.4 342.1 L 624.4 341.4 L 624.3 340.4 L 624.6 339.9 L 624.3 339.3 L 624.5 338.6 Z M 623 315.2 L 623 315 L 623.3 314.4 L 623.5 314.1 L 624 313.2 L 624.2 312.8 L 625.1 311 L 625.4 310.5 L 626.4 308.9 L 627.6 307.4 L 630.1 306.8 L 631.7 306.8 L 632.6 306.8 L 634.2 307.3 L 635.6 307.7 L 635.8 307.8 L 637.3 308.9 L 637.9 310.1 L 638.1 311.3 L 638.4 312.8 L 638.5 315.1 L 638.5 315.2 L 638 318.1 L 637.2 319.9 L 636.1 321.2 L 636.1 321.3 L 634.2 322.4 L 633.6 322.7 L 631.8 322.9 L 631.7 322.9 L 630.5 323.1 L 629.2 323 L 627.7 322.4 L 625.6 321 L 624.9 320.4 L 624 319.5 L 623.3 318.4 L 623.2 318.3 L 623.2 318.1 L 623.1 317.9 L 623.1 317.7 L 623 317.3 L 623 317.1 L 623 316.2 L 623 315.2 Z M 619 395.3 L 619.1 394.2 L 619.6 392.9 L 619.8 392.8 L 620.3 392.4 L 620.4 392.3 L 620.7 392.1 L 620.8 391.6 L 621 391.6 L 621.6 391.1 L 622.7 390.6 L 623.3 390.3 L 625 389.5 L 625.3 389.4 L 627 389.1 L 629.7 390 L 631.2 391.3 L 631.4 391.5 L 632.7 392.8 L 632.7 392.9 L 633.6 393.7 L 633.6 395.2 L 633.6 396.4 L 633.5 398.4 L 633 400 L 632.4 401.1 L 631.3 402.2 L 629.6 403.2 L 627.9 403.7 L 626.8 403.8 L 626 403.8 L 624.4 403.7 L 623.3 403 L 622.2 402.9 L 621.1 402.1 L 620.8 401.9 L 619.9 400.6 L 619.3 398.6 L 618.9 396.5 L 619 395.3 Z M 614 273.1 L 614.2 272.2 L 614.4 271.7 L 614.6 270.9 L 614.9 270.1 L 614.9 269.4 L 614.9 269.4 L 615.3 268.4 L 615.4 267.5 L 615.7 266.9 L 616.1 265.8 L 616.8 265.1 L 617.2 264.7 L 617.2 264.7 L 617.6 264.3 L 617.6 264 L 617.6 262.7 L 617.7 261.9 L 617.9 261.5 L 618.1 261 L 618.5 260.5 L 618.9 260 L 619.4 259.6 L 620.3 258.8 L 620.9 258.4 L 621.1 258.2 L 621.7 257.8 L 622.4 257.2 L 623.3 256.7 L 624.1 256.2 L 624.8 256.1 L 625.6 256.2 L 625.7 256.2 L 626.6 256.1 L 627.1 256.1 L 628.2 256.4 L 629.2 256.4 L 629.8 256.5 L 631.1 256.9 L 631.9 257.4 L 632.5 257.9 L 632.7 258.3 L 632.9 258.5 L 633.3 259.2 L 633.8 259.9 L 634.2 260.5 L 634.7 261.3 L 634.8 261.7 L 635 262.1 L 635.3 262.9 L 635.4 263.7 L 635.6 264.2 L 635.3 264.8 L 635.3 265.2 L 635.3 265.6 L 635.3 265.7 L 635.1 266.3 L 635.1 266.9 L 635.1 267.3 L 635 267.7 L 634.9 268.4 L 634.5 269.6 L 634.4 269.8 L 634.2 270.5 L 633.7 271.4 L 633.3 272.1 L 632.8 272.6 L 632.4 273.1 L 631.5 274.2 L 631.1 274.4 L 630.5 274.6 L 629.4 275.2 L 628.4 275.7 L 627.8 276.3 L 627 277 L 627 277 L 626.2 277.5 L 625.7 278.1 L 625 278.4 L 623.5 279.3 L 622.8 279.7 L 620.8 279.7 L 618.5 279.3 L 618.5 279.3 L 617 278.4 L 616.2 277.9 L 615.7 277.6 L 615.5 277.2 L 615.2 276.7 L 615.2 276.7 L 615.1 276.1 L 614.8 275.7 L 614.5 274.9 L 614.1 274.2 L 614.1 273.6 L 614 273.1 Z M 606.9 206.7 L 607 205.4 L 608 202.8 L 610 199.5 L 610.2 199.3 L 610.8 198.6 L 612.3 197.8 L 612.7 197.7 L 613.6 197.5 L 613.9 197.4 L 614.2 197.4 L 615.3 197.3 L 615.6 197.2 L 616.8 197.3 L 618.3 197.6 L 619.3 197.8 L 619.8 198 L 620.3 198.4 L 621.1 199.2 L 622.6 201.2 L 623.3 202.2 L 624 203.9 L 624.3 204.6 L 624.6 205.1 L 624.9 206.7 L 625.1 208.3 L 625 209.3 L 625 209.5 L 624.5 211 L 624.4 211.2 L 624.2 211.4 L 624.1 211.6 L 623.5 212.6 L 623.3 213 L 622.1 215.1 L 621.8 215.3 L 621.4 215.6 L 618.9 217.2 L 617.6 217.8 L 617.4 217.9 L 616.5 217.7 L 615.5 217.7 L 614.9 217.6 L 614.7 217.5 L 613.4 216.9 L 612.3 216.5 L 610.9 215.6 L 610.9 215.5 L 609.5 213.7 L 608.1 211.2 L 608.1 211 L 607.6 209.3 L 607.5 209.2 L 606.9 206.7 L 606.9 206.7 Z M 606.6 427.2 L 607.6 424.7 L 609.1 423.4 L 609.9 422.7 L 612.3 421 L 614.5 420.3 L 614.9 420.2 L 616.8 420.1 L 620.7 420.4 L 621.2 420.6 L 623.3 421.4 L 624.1 422.4 L 624.6 422.8 L 625.1 423.7 L 625.7 425.9 L 625.9 426.4 L 626 427.1 L 626.1 428.5 L 626.1 428.5 L 626.1 428.9 L 625.2 430.9 L 624.8 431.8 L 624.3 432.3 L 623.3 433.2 L 621.8 434.6 L 621.4 434.8 L 621 435 L 619.6 435.8 L 619.1 436.1 L 618.3 436.3 L 616.9 436.4 L 614.6 436.4 L 614.5 436.3 L 612.3 435.7 L 610.5 434.9 L 608.8 433.9 L 608 433.4 L 606.7 430.2 L 606.6 427.2 Z M 584.5 121.5 L 585.3 120.1 L 586.5 118.7 L 586.6 118.6 L 587.5 117.6 L 588.5 116.7 L 588.8 116.4 L 589.1 116.1 L 589.8 115.8 L 590 115.8 L 590.5 115.7 L 591.4 115.4 L 591.7 115.4 L 592.4 115.4 L 593.6 115.5 L 594.8 115.8 L 595.3 116 L 595.8 116.2 L 596.3 116.7 L 596.3 116.7 L 596.9 117.2 L 597.8 117.9 L 598.5 118.5 L 599 118.9 L 599.6 119.9 L 600.5 121 L 600.8 121.8 L 600.9 122.4 L 601 123.2 L 600.6 124.1 L 600.4 125.4 L 600 125.9 L 599.8 126.2 L 599.3 127.1 L 598.6 128.1 L 598.5 128.3 L 597.5 130.1 L 597.5 130.2 L 595.1 131.5 L 592.7 131.7 L 592.3 131.6 L 590.5 131.1 L 590 130.9 L 589.5 130.7 L 588.9 130.4 L 587.7 129.9 L 586.7 129.3 L 586.6 129.3 L 586.3 128.3 L 586.1 128.1 L 585.8 127.4 L 585.2 125.9 L 585.1 125.7 L 584.8 124.2 L 584.3 122.8 L 584.5 121.5 Z M 569.2 89.8 L 569.6 88.3 L 570.5 86.4 L 571.8 85.5 L 573.3 84.5 L 575.5 84 L 576.3 84 L 578.1 83.9 L 579.6 84.3 L 580.9 84.6 L 581.7 85.2 L 582.7 85.9 L 583.9 87.3 L 584.7 89 L 585.2 90.4 L 585 91.2 L 584.8 91.9 L 584.3 93.1 L 584.4 93.5 L 584.1 94.1 L 583.7 94.7 L 583.3 95.4 L 582.4 96.4 L 581.5 97.1 L 580.7 97.5 L 580.5 97.6 L 579.6 98.3 L 579.4 98.3 L 577.9 98.3 L 577.2 98.3 L 576.2 98.4 L 575.2 98.3 L 573.7 97.9 L 572.8 97.3 L 572.2 96.5 L 571.3 95.6 L 571.1 95.4 L 570.2 94.8 L 569.9 93.5 L 569.6 92.1 L 569.3 90 L 569.2 89.8 Z M 562.9 631 L 563.2 629.9 L 563.3 629.8 L 564.3 628 L 565.7 627.1 L 565.7 626.9 L 565.5 626.2 L 565.6 625.6 L 565.6 625.4 L 565.7 624.8 L 566.7 623.6 L 567.7 622.7 L 568.7 622.2 L 568.9 622.1 L 570.2 621.4 L 571.4 621.1 L 573.3 621.1 L 574.1 620.4 L 574.9 619.8 L 575.3 619.4 L 576.6 618.7 L 576.7 618.7 L 578.3 618.3 L 579.5 618.2 L 579.9 618.3 L 580.8 618.3 L 581.4 618.6 L 581.9 619.4 L 582.5 619.3 L 582.7 619.3 L 584.3 619.2 L 584.6 619.2 L 585 619.3 L 585.6 619.4 L 586 619.6 L 586.4 619.8 L 586.5 619.8 L 588.4 620.3 L 589.6 621.9 L 590 622.9 L 590.4 624.2 L 590.3 626.3 L 590.2 627 L 590.1 627 L 590 627.2 L 589.5 628 L 588.2 630 L 588.3 630.2 L 588.4 631 L 588.3 631.4 L 587.4 632.5 L 586.2 633.4 L 585 633.8 L 583.8 634 L 583.6 634.7 L 582.6 635.9 L 581.6 636.5 L 580.5 637 L 580 637.1 L 579.8 637.1 L 579.6 637.2 L 579 637.3 L 578.1 637.6 L 577.2 637.4 L 576.9 637.3 L 576.3 637.6 L 574.9 638.4 L 573.3 639 L 571.7 638.4 L 570.9 638.4 L 569.9 638.8 L 569.4 638.7 L 568.8 638.3 L 568.6 638.3 L 567.5 638.2 L 566.2 638.1 L 564.5 636.9 L 564.4 636.7 L 563.7 635.7 L 563.6 635.6 L 563.4 635.2 L 563.4 635.1 L 563.3 634.9 L 563.3 634.8 L 562.9 633.4 L 562.8 632 L 562.9 631 Z M 541.6 41 L 542.1 39.6 L 543.1 38 L 544.2 37.1 L 544.3 37 L 545.7 36.3 L 546.8 36.2 L 548.9 36 L 550.2 36.1 L 551 36.2 L 552.6 36.8 L 554.1 38.1 L 555.2 39.3 L 555.7 41.1 L 555.9 42.5 L 555.9 43.6 L 555.9 44.5 L 555.2 45.9 L 554.5 46.9 L 554.1 47.3 L 553.6 47.8 L 552.8 48.5 L 552.3 48.9 L 551.9 49.2 L 551.3 49.7 L 550.8 49.8 L 550 50 L 548.8 50.2 L 547.8 50.3 L 547.1 50.3 L 546.8 50.1 L 546.7 50.1 L 545.7 50 L 544.9 49.5 L 544.2 49.3 L 544.1 49.3 L 543.6 48.9 L 543 48.3 L 542.6 47.7 L 542.5 46.9 L 542.1 46.2 L 541.6 44.7 L 541.6 44.3 L 541.4 42.7 L 541.6 41 Z" fill="#1e5ea9" fill-opacity="0.86" stroke="#0b3b75" stroke-width="1.2" fill-rule="evenodd"/>
</svg>
