<?xml version="1.0" encoding="UTF-8"?>
<svg xmlns="http://www.w3.org/2000/svg" width="1200" height="675" viewBox="0 0 1200 675" role="img" aria-label="PR-0 congressional district map">
  <path d="M 305.2 268.8 L 305.6 266.8 L 306 264.9 L 307 261.6 L 308.8 258.3 L 311.5 254.7 L 313.4 252.9 L 315.7 251.7 L 318.4 250.4 L 320.6 249.4 L 322.3 248.5 L 333.6 246 L 334.6 245.8 L 334.6 245.8 L 334.7 245.7 L 334.8 245.5 L 334.9 245.4 L 335.2 245.2 L 335.4 245.2 L 335.5 245.1 L 335.8 244.9 L 336.2 244.8 L 336.6 244.6 L 336.8 244.5 L 337.2 244.2 L 337.7 243.9 L 338.3 243.5 L 339.2 242.9 L 339.7 242.5 L 340.3 242.2 L 340.8 242 L 341.1 241.8 L 341.5 241.6 L 342.2 241.4 L 342.7 241.1 L 343.3 240.8 L 343.9 240.4 L 344.5 240 L 345.4 239.6 L 346.1 239.1 L 346.7 238.7 L 347.1 238.4 L 347.5 238.2 L 347.9 238 L 348.4 237.6 L 348.8 237.3 L 349.6 236.8 L 350.3 236.3 L 351 235.9 L 351.2 235.8 L 351 235.4 L 350.8 235.2 L 350.8 235.1 L 350.6 234.6 L 350.4 234.4 L 350 233.6 L 349.6 232.8 L 349.2 232.1 L 348.7 230.8 L 348.3 229.9 L 348.2 229.4 L 347.8 228.5 L 347.5 227.8 L 347.3 227 L 347.1 226.3 L 346.9 225.5 L 346.6 224.5 L 346.4 224 L 346.2 223.1 L 346.1 222.7 L 346 222.5 L 345.9 221.8 L 345.8 221.6 L 345.7 220.8 L 345.7 220.8 L 345.6 220.1 L 345.6 219.8 L 345.4 218.8 L 345.4 217.9 L 345.4 217.1 L 345.3 216.7 L 345.3 215.9 L 345.4 214.1 L 345.6 213.1 L 345.7 212.4 L 345.9 212.4 L 347.6 212.4 L 347.8 212.4 L 348.8 210.1 L 350.4 206.9 L 352.1 204.4 L 354.3 201.8 L 356.3 199.9 L 357.5 198.9 L 358.1 198.4 L 358.9 198 L 360.6 196.3 L 362.4 194.8 L 364.1 193.2 L 366.9 191.2 L 370.1 189.5 L 373.5 188.4 L 375.6 187.8 L 376.1 187.7 L 378.6 186.8 L 382 186 L 383.2 185.8 L 384.4 185.6 L 385.7 185.1 L 387.5 184.6 L 389.2 184.3 L 389.3 184.3 L 391.1 183.9 L 392.2 183.6 L 392.3 183.6 L 393.5 183.5 L 395.5 183.3 L 397.1 183.1 L 398.9 183 L 400.3 183.1 L 402.5 183.2 L 404.7 183.3 L 406.3 183.3 L 408.5 183.6 L 410.4 183.7 L 413.1 184 L 415.7 184.1 L 419.5 184.5 L 423.8 184.9 L 424.6 185 L 427.2 185.3 L 429.5 185.8 L 432.1 186.3 L 433.8 186.9 L 434.2 187 L 434.2 187.1 L 434.2 188 L 434.7 188.1 L 435.8 188.5 L 437.6 189.3 L 440.2 190.6 L 441.5 191.3 L 442 191.5 L 444 192.2 L 444 192.2 L 445.7 193.2 L 446.5 193.5 L 448.6 193.8 L 449.6 193.9 L 450.8 194.1 L 452.4 194.4 L 453.4 194.8 L 454.8 194.6 L 455.6 194.6 L 456.5 194.6 L 458.9 194.8 L 461.2 195.2 L 463.2 195.7 L 464.1 196 L 465.5 196.4 L 466.6 196.7 L 468.6 197.1 L 470.7 197.6 L 472.4 197 L 473.1 196.8 L 473.1 195.4 L 473.5 195.3 L 475.7 194.9 L 480.3 194.1 L 484.1 193.8 L 484.2 193.8 L 484.9 193.8 L 485.8 193.8 L 487.8 193.7 L 489.1 193.8 L 490.9 193.8 L 492.2 193.8 L 493.4 193.7 L 494.9 193.9 L 496.3 194.1 L 499.1 194.7 L 501.3 194 L 504.6 193.5 L 506.9 193.3 L 508.1 193.2 L 509.8 193.2 L 512.1 193.2 L 515.7 193.4 L 519.3 193.8 L 522.6 194.3 L 525.5 194.8 L 527.8 195.5 L 528.3 195.6 L 531.3 196.8 L 533 197.6 L 533.8 198.1 L 535.5 199.2 L 537.3 199.6 L 539.8 200.7 L 541.1 200.2 L 541.3 200.1 L 543.4 199.6 L 543.5 199.6 L 545.3 199.5 L 547.3 198.8 L 549.3 198.4 L 551.5 197.9 L 552.2 197.3 L 553.8 196.6 L 556 196 L 558.4 195.5 L 561.5 195.1 L 564.5 195.1 L 565.9 195.2 L 567.3 194.8 L 568.3 194.9 L 569.4 194.9 L 571.2 194.2 L 574 193.6 L 576.6 193.3 L 579.6 193.1 L 583.1 193 L 583.7 193.1 L 585.4 193.2 L 587.7 193.5 L 588.6 193.5 L 590.5 193.2 L 592.6 193.3 L 594.7 193.6 L 596.7 194 L 598.6 194.8 L 600.4 194.3 L 602.1 194.2 L 602.4 194.1 L 604.2 194.2 L 606.8 194.5 L 608.2 194.4 L 610.8 194.7 L 613.9 195.2 L 614.9 195.5 L 617.4 195.9 L 620.1 196.7 L 620.4 196.7 L 621.1 196.7 L 623.6 196.7 L 627.3 197.4 L 630.3 198.3 L 631.6 198.7 L 633.5 199.4 L 634.5 199.7 L 635.3 200 L 637.5 200.2 L 638 200.4 L 639 200.6 L 640.7 201 L 641.9 201.3 L 642.7 200.5 L 644.4 199.2 L 646 198 L 647.2 197.3 L 647.8 197 L 650.1 195.9 L 651.1 195.6 L 652.1 195.2 L 653.8 195 L 655.5 194.7 L 657.2 194.5 L 658.5 194.4 L 658.7 194.4 L 658.8 194.4 L 660 194.7 L 661.3 194.1 L 662.5 194 L 663.7 193.8 L 665.4 193.4 L 666.8 193.3 L 667.6 193.2 L 668.9 193.2 L 673.3 193.2 L 677 193.5 L 679.8 194 L 681.7 194.5 L 681.7 194.5 L 682.5 194.4 L 683.3 194.3 L 684.6 194.5 L 686.6 194.8 L 687.9 194.6 L 689.5 194.4 L 691.7 194.3 L 693.1 194.4 L 694.2 194.4 L 694.5 194.4 L 695.9 194.4 L 697.6 194.6 L 699.9 195.4 L 702 196.3 L 704.1 197.3 L 705.8 197.8 L 707.8 198.7 L 708.8 198.8 L 709.7 199.1 L 711.2 199.5 L 712.1 199.7 L 712.8 199.7 L 714.7 199.7 L 717.1 199.8 L 718.5 200.1 L 719.8 199.6 L 722 199.3 L 724.5 199.1 L 726.8 199.1 L 729 199.2 L 731.2 199.7 L 732.3 199.9 L 733 199.9 L 733.1 200 L 734.5 200.3 L 736 200.6 L 738.7 201.6 L 740.3 201.5 L 742.7 201.5 L 745.4 201.9 L 748.1 202.4 L 749.9 201.7 L 752.3 201 L 755.3 200.4 L 758 200.5 L 758 200.5 L 759.7 200.6 L 761.9 200.9 L 762.7 201 L 764.7 200.9 L 766.4 201 L 768 201 L 770 201 L 773.2 201 L 777.3 201.1 L 781.1 201.3 L 781.2 201.3 L 782.9 201.9 L 784.5 202.4 L 784.9 202.6 L 786.5 202.5 L 787.8 202.8 L 789 203.1 L 789.7 203.5 L 791 203.3 L 792.7 203.4 L 794.9 203.3 L 796.9 203.2 L 798.9 203.4 L 800.8 203.7 L 802.8 204.2 L 804.3 204 L 805.6 203.9 L 807.4 204 L 810.1 203.9 L 812.1 204 L 814.3 204.2 L 816.2 204.6 L 819.1 205.6 L 819.7 205.8 L 821.2 206 L 822.3 206.5 L 824 206.7 L 825.1 206.7 L 825.4 206.7 L 826.4 206.2 L 827.8 205.8 L 829.3 205.3 L 831 205.1 L 832.8 205 L 833.6 204.8 L 834.5 204.7 L 835.2 204.6 L 837.5 204.9 L 839 205.5 L 841.1 205.8 L 843.4 206.4 L 846.4 207.3 L 848.8 208.1 L 850.8 209 L 852.5 210 L 853.3 210.5 L 857 210.7 L 859.5 211.2 L 860.2 210.8 L 862.8 210.1 L 866 209.4 L 868.7 209.3 L 869.3 209.3 L 872.7 209.6 L 876.4 210.2 L 877.7 210.5 L 879.9 211.1 L 881.6 211.8 L 882.6 212.4 L 883.8 213.2 L 885.6 214.4 L 886.7 215.1 L 888.7 216.4 L 889.3 216.9 L 890.5 216.8 L 890.9 216.7 L 892.1 216.6 L 892.7 216.7 L 893.5 216.8 L 895 217 L 896.5 217.1 L 896.9 217.1 L 897.8 217.2 L 899.3 217.4 L 900.2 217.6 L 902.2 218.1 L 904.5 218.8 L 906.7 219.6 L 908.7 220.3 L 910.2 220.7 L 912 221 L 913.3 221 L 915.3 221 L 917.2 221 L 918.3 221.1 L 919.2 221.1 L 921.4 221.4 L 923.5 221.9 L 925.9 222.2 L 927.7 222.6 L 929.4 222.9 L 930.8 223.4 L 931.7 223.8 L 932.4 224.4 L 932.4 224.4 L 932.4 226.4 L 934 226.8 L 934.9 226.8 L 937.2 227.7 L 939.1 228.6 L 942.7 230.7 L 944.6 232.6 L 945.9 233.8 L 946.7 235.1 L 946.7 235.1 L 948.3 237.5 L 949.5 237.9 L 952.5 239 L 955.3 240.5 L 955.3 240.5 L 955.6 240.7 L 957.9 242.6 L 959.5 244.3 L 960.7 245.8 L 962.5 244.4 L 965.6 242.6 L 967.3 241.8 L 968.9 241.5 L 969.5 240.6 L 970.8 238.7 L 972.9 236.6 L 973.7 235.9 L 976 234.4 L 978 233.4 L 980 232.6 L 981.6 232.2 L 982.2 232.1 L 988.7 233.3 L 997.3 235.4 L 1005.5 238.6 L 1012.5 241.6 L 1021.1 245.4 L 1028.6 248.9 L 1032 250.6 L 1034.9 252.1 L 1037.1 252.4 L 1038.4 252.8 L 1038.8 252.9 L 1040.2 253.9 L 1043 254.4 L 1044.2 255.1 L 1045.1 255.7 L 1046.2 256.3 L 1049.4 256 L 1053.8 256.2 L 1055.8 256.4 L 1059.6 257.1 L 1062 257.4 L 1062 257.4 L 1063.2 255.1 L 1064.3 253.1 L 1066.1 250.9 L 1068.5 248.9 L 1071.5 247.1 L 1074.6 245.6 L 1077.9 244.8 L 1081 244.6 L 1081.9 244.7 L 1084 244.9 L 1086.7 245.4 L 1089.1 246.3 L 1091 247.1 L 1093.4 248.4 L 1095.8 249.8 L 1097.8 250.3 L 1100.1 251.1 L 1102.6 252.2 L 1105.1 253.9 L 1107.1 255.5 L 1108.9 257.5 L 1109.4 257.9 L 1110.4 258.9 L 1117 258.9 L 1117.6 258.7 L 1118.7 258.2 L 1119.8 257.9 L 1121.3 257.6 L 1124.2 257.2 L 1127.2 256.8 L 1130.2 255.7 L 1131.7 255.1 L 1133.8 254.7 L 1137.2 254.6 L 1139.7 254.8 L 1143.1 255.6 L 1145.6 256.7 L 1148.1 258.1 L 1151.5 260.9 L 1153.4 263 L 1154.5 264.9 L 1155.2 266 L 1157.2 268.6 L 1158.3 270.5 L 1158.7 271.4 L 1159.8 274.3 L 1160 275.5 L 1161.5 278.6 L 1162.8 281.6 L 1163.3 285.3 L 1164 290 L 1163.9 294.1 L 1162.7 298 L 1161.2 301.2 L 1159.2 304.3 L 1157.5 307.3 L 1156.3 309.7 L 1155 312.9 L 1153.5 315 L 1151.7 317 L 1151.2 317.4 L 1150.8 317.4 L 1149.3 318.8 L 1146.9 320.2 L 1146.6 320.3 L 1143.5 321.5 L 1140.5 322.6 L 1137.1 322.8 L 1134.3 322.7 L 1131.7 322.1 L 1130.4 321.6 L 1128.9 323 L 1126.3 324.5 L 1122.2 325.7 L 1116.9 326.7 L 1112.7 326.1 L 1108.9 324.9 L 1105.4 323.1 L 1103.2 321.3 L 1101.3 318.8 L 1100.1 318.9 L 1098.1 319.1 L 1095.2 318.6 L 1093.9 318.1 L 1092.1 317.4 L 1090.1 316.4 L 1087.5 315.1 L 1085.1 313.4 L 1083.5 311.8 L 1083.4 311.8 L 1081.9 310.4 L 1081.9 310.4 L 1081.9 310.4 L 1080.5 309.3 L 1078.2 308.8 L 1073.6 306.8 L 1070.2 305.5 L 1066.5 302.8 L 1065.1 301.1 L 1065 301 L 1062.7 299.5 L 1062.3 299.2 L 1060.7 299.5 L 1056.7 299.6 L 1052.2 298.9 L 1047.2 298.4 L 1048.7 302.7 L 1049.2 306 L 1049 309 L 1048.5 312.1 L 1047.9 314.6 L 1047.8 314.8 L 1046.5 317.4 L 1045.7 319.2 L 1042.1 323.5 L 1039.3 325.3 L 1036.1 326.9 L 1032 328.3 L 1032 327.3 L 1027.1 327.9 L 1023.8 329.2 L 1018.4 329.9 L 1015.2 333.2 L 1014.3 335.4 L 1012.3 338.5 L 1011.4 340.7 L 1011.2 341.2 L 1010.1 344 L 1012.8 341.8 L 1016.3 338.8 L 1016.4 338.8 L 1017.8 337 L 1021.8 334.3 L 1022.2 334 L 1022.4 333.9 L 1027.6 331.7 L 1032 331.1 L 1035.1 330.7 L 1037.3 329.7 L 1040.1 329.1 L 1041.7 328.7 L 1046.1 328.2 L 1052.3 329.5 L 1054.7 330.7 L 1056.6 331.6 L 1059.2 333.9 L 1063 333.8 L 1069 333 L 1071.5 332.8 L 1073.8 332.6 L 1081.9 333.6 L 1084.8 334 L 1084.8 334 L 1089 334.5 L 1089.3 334.5 L 1092.5 335.1 L 1096.1 336 L 1099.1 337.1 L 1100.1 337.6 L 1103.3 337.7 L 1105.1 338.1 L 1107.9 337.7 L 1110.4 337.8 L 1112.9 338.4 L 1116.8 338.2 L 1120.2 338.4 L 1122.8 339.1 L 1125.8 340.4 L 1128.4 341.9 L 1129.6 342.5 L 1130.4 342.9 L 1131.7 343.9 L 1133.5 345.8 L 1134.5 346.8 L 1136.6 348.1 L 1138.7 349.8 L 1140.6 351.9 L 1142.3 354.2 L 1144 357.5 L 1145 361.2 L 1145.4 364.3 L 1145.3 367.2 L 1145 369.9 L 1144.3 372.6 L 1142.2 377.3 L 1139.8 380.1 L 1137 382.7 L 1134.1 384.6 L 1131.7 386.1 L 1129.5 386.9 L 1126.4 387.5 L 1125 387.6 L 1123.8 387.8 L 1122.6 387.7 L 1120.3 389 L 1117.1 390.2 L 1113.2 391.3 L 1109.8 391.8 L 1106.7 391.6 L 1104.2 393.3 L 1101.8 394.3 L 1101.7 394.3 L 1098.1 395.4 L 1094.6 395.8 L 1092.7 395.7 L 1092.4 395.6 L 1091.5 395.4 L 1089.4 396.1 L 1087.1 397 L 1083.9 397.7 L 1081.9 398.1 L 1080.8 398.2 L 1077.1 398.1 L 1075.3 397.8 L 1071.1 400.9 L 1067.2 402.4 L 1064.1 403.3 L 1061.8 403.5 L 1058.9 405.1 L 1055.7 405.8 L 1053.3 406.3 L 1052.6 406.4 L 1049.4 406.3 L 1047 405.8 L 1046.2 405.9 L 1043.5 406 L 1040.6 406 L 1040.5 406 L 1037.2 405.3 L 1034.6 404.3 L 1033.5 403.8 L 1032.9 403.9 L 1032 404.3 L 1031 405.5 L 1028.8 406.6 L 1026.1 407.8 L 1022.2 409 L 1019.1 409.5 L 1015.9 409.8 L 1012.1 409.5 L 1009.5 408.8 L 1006.4 407.6 L 1004.5 406.8 L 1002.3 406.2 L 1002.1 406.1 L 999.5 405.3 L 996.6 404.2 L 994.1 402.5 L 991.8 400.8 L 990 399 L 987.8 397.1 L 985.8 394.6 L 985.6 394.3 L 984 392 L 982.2 388.9 L 981.1 386.5 L 980.3 384 L 979.8 380.1 L 979.8 376.4 L 979.6 372.6 L 979.7 369.9 L 979.7 369.9 L 979.9 367.4 L 980.6 365.2 L 982.2 361.6 L 982.2 361.6 L 982.6 360.7 L 983.9 359 L 984.8 356.8 L 984.8 356.8 L 984 357.4 L 983.3 357.9 L 982.7 358.2 L 982.2 358.4 L 979.8 359.8 L 978.9 360.4 L 975.6 362.3 L 972.9 363.9 L 970.2 365.5 L 969.1 366.1 L 967.1 367.1 L 967.1 367.2 L 965.5 367.9 L 963.9 368.2 L 962.5 368.3 L 961.1 368.6 L 959.8 368.7 L 958.5 368.6 L 957.3 368.5 L 956.4 368.4 L 956 369.2 L 955.4 369.9 L 953.8 371.3 L 952.4 372.7 L 950.6 374.3 L 948.4 375.6 L 946.6 376.5 L 945.8 376.9 L 945.5 378.5 L 944.9 380.7 L 943.9 383.5 L 943.5 384.2 L 942.7 385.8 L 941.5 387.7 L 939.5 389.8 L 937.7 391.3 L 936.6 391.8 L 936.2 395.2 L 935.3 397.4 L 934.4 399.3 L 933.8 400.2 L 933.5 401.9 L 932.8 404.3 L 932.4 405.2 L 931.4 406.5 L 929.8 408.2 L 927.8 409.9 L 925.9 410.9 L 922.6 412.4 L 919.3 413.5 L 919.7 415.3 L 919.7 417.4 L 919.4 420.2 L 918.5 422.2 L 916.9 425.9 L 914.6 429.1 L 913.3 431.1 L 910.3 433.5 L 907.9 435.1 L 906.2 435.7 L 905.8 435.9 L 903.3 436.7 L 901.2 437.2 L 898.5 440.5 L 894 444.4 L 891.4 445.9 L 884.7 447.4 L 884.4 447.4 L 883.1 447.4 L 882.6 447.4 L 882.6 447.4 L 881.3 447.6 L 879.5 448.5 L 877.1 449.7 L 874.7 450.7 L 872.7 451.6 L 870.5 452.3 L 868.2 452.9 L 865.9 453.4 L 863.8 453.8 L 861.9 454.1 L 860.6 454.2 L 860.4 454.2 L 859.3 454.3 L 857.7 454.4 L 856.5 454.6 L 854.7 454.7 L 852.6 454.7 L 851 454.6 L 849.1 454.5 L 848.7 454.4 L 847.1 454.2 L 846.3 454.1 L 845.7 454 L 844.3 453.7 L 843.4 453.6 L 842.4 455.1 L 841.9 455.6 L 841.5 456 L 841.4 456.1 L 840.4 457.2 L 840.2 457.4 L 838.8 458.7 L 837.6 459.6 L 837.3 459.8 L 836.1 460.8 L 834.6 461.9 L 832.8 463.3 L 831.5 464.1 L 829.3 465 L 825.1 465.8 L 822.7 465.6 L 819.5 465.4 L 816 465.1 L 812.8 464.3 L 810.2 463.2 L 809.5 462.7 L 808.3 462 L 806.9 461.3 L 805.8 460.8 L 803.5 459.6 L 802 458.8 L 801.7 459.2 L 799.3 461.3 L 795.7 464.4 L 794.8 465 L 791.3 467.8 L 787.1 470.6 L 783.9 471.9 L 782.9 472.2 L 782.5 472.3 L 780.3 472.5 L 778.1 472.6 L 775.8 472.6 L 773.4 472.6 L 772.2 472.4 L 770.7 472.3 L 768.3 472.1 L 766 471.9 L 763.9 471.6 L 762.7 471.3 L 761 470.6 L 759.3 472 L 757.9 472.9 L 757.5 473.2 L 755.4 474.6 L 755.4 474.6 L 747.8 478.1 L 747.6 478.2 L 744.8 478.9 L 744.6 478.9 L 742 479.1 L 738.6 479.1 L 735.6 479 L 733.1 478.4 L 733.1 478.4 L 731.6 478.1 L 730 477.7 L 728.2 477.1 L 726.2 476.1 L 724.3 475.3 L 723.2 474.6 L 723.9 474.6 L 719.9 472.4 L 719.3 472.3 L 718.3 472.1 L 717.3 472 L 716 471.7 L 715.3 471.5 L 713.3 471.1 L 711.8 470.8 L 711.4 471.1 L 710.6 471.5 L 708.9 472 L 706.5 472.4 L 703.8 472.7 L 703.8 472.7 L 700.4 472.8 L 698.5 472.7 L 697.3 472.7 L 697 472.6 L 696.5 472.7 L 695.1 473 L 694.3 473.1 L 693.2 473.3 L 691.2 473.3 L 689.7 473.2 L 689.7 473.2 L 689.2 473.6 L 688.3 474 L 687.2 474.5 L 686.6 474.6 L 688.1 474.6 L 686 475.4 L 685.1 475.7 L 684.1 475.9 L 683.3 475.8 L 682.5 475.9 L 680.8 476.2 L 677.9 476.2 L 675.5 476.1 L 673.2 475.6 L 670.9 475.1 L 669.7 474.6 L 668.8 474.3 L 668.1 474 L 667.1 473.5 L 666.3 473.1 L 665.8 472.8 L 665.6 472.7 L 664.8 472.1 L 664.2 471.4 L 663.4 470.9 L 663.4 470.9 L 663.4 470.9 L 658.1 474.6 L 656.6 475.2 L 654.5 475.6 L 652 476 L 650.4 476.1 L 648.6 476 L 648.1 477.1 L 647.1 478.3 L 646.5 478.9 L 645.5 479.9 L 644 481.5 L 642.8 482.6 L 641.5 483.4 L 640.2 484.1 L 638.9 484.7 L 637.7 485.4 L 635.7 485.9 L 635.2 486.4 L 634.5 487 L 633.5 487.8 L 631.6 488.8 L 628 490.4 L 624.3 491.4 L 621 492 L 618.1 491.9 L 614 491.3 L 610.7 490 L 607.7 488.4 L 604.9 486.1 L 602.8 483.5 L 601.4 481.3 L 601.1 480.8 L 600.2 479.2 L 599.3 476.6 L 598.9 474.6 L 598.7 473.9 L 598.7 473.2 L 598.7 472.4 L 599 471.1 L 599 470.9 L 599 469.5 L 599.2 468.1 L 599.4 467.1 L 599.8 465.4 L 600.2 464.4 L 600.6 463.5 L 601 462.4 L 601.6 461.3 L 602.1 460.5 L 602.7 459.4 L 603.4 458.6 L 603.8 457.8 L 603 458.1 L 602 458.6 L 601.2 458.9 L 600.4 459.2 L 599.1 459.5 L 598 459.6 L 596.8 459.7 L 595.1 459.5 L 593.8 459.3 L 592.7 459 L 591.6 458.7 L 589.9 457.9 L 589.3 457.6 L 588.7 457.3 L 587.8 456.9 L 587.3 457.1 L 586.5 457.3 L 585.8 457.5 L 584.7 457.6 L 584.1 457.7 L 583.7 457.6 L 582.9 457.7 L 581.8 457.9 L 579.9 458.1 L 578.9 458.2 L 578.4 458.3 L 577.5 458.3 L 576.9 458.3 L 576.3 458.8 L 575.4 459.6 L 573.9 460.6 L 572.5 461.4 L 571.2 462.1 L 569.8 462.7 L 568.5 463.3 L 566.9 464 L 565.9 464.3 L 564.7 464.6 L 564 464.6 L 562.8 464.7 L 561.7 464.7 L 560.8 464.5 L 559.9 464.2 L 558.7 463.8 L 557.4 463.4 L 556.3 462.9 L 555.5 462.5 L 554.7 462.1 L 554 461.7 L 553.4 461.4 L 552.5 461 L 551.8 460.6 L 551.2 460.2 L 550.6 459.9 L 549.6 459.3 L 549 458.9 L 548.6 458.5 L 548.3 457.9 L 547.5 458 L 547 458.1 L 546 458.2 L 544.9 458.3 L 544.1 458.2 L 543.2 458 L 542.5 457.9 L 542.2 457.8 L 541.2 457.5 L 540.3 457.2 L 539.2 456.7 L 539.2 456.7 L 538.5 456.4 L 538.3 456.3 L 537.7 456.5 L 537.4 456.6 L 537.1 456.7 L 536.4 456.7 L 535.8 456.9 L 535.2 456.9 L 534.3 456.8 L 533.8 456.8 L 532.9 456.5 L 531.9 456.3 L 530.9 456.2 L 529.9 455.9 L 529 455.8 L 528.5 456.2 L 527.8 456.5 L 526.8 456.8 L 525.7 457 L 524.5 457.1 L 524.1 457.1 L 523.5 457.1 L 522.1 457.1 L 520.8 457 L 519.3 456.7 L 518.5 456.6 L 518.1 456.8 L 517.3 457.2 L 516.1 458.1 L 514.9 458.9 L 513.9 459.5 L 512.8 460.1 L 511.8 460.6 L 510.7 461 L 509.7 461.5 L 508.6 461.8 L 507.4 461.8 L 506.6 461.8 L 506 462.2 L 505.3 462.6 L 503.7 463.1 L 502.2 463.4 L 500.9 463.6 L 499.4 463.7 L 498.2 463.7 L 497.9 463.7 L 497.3 463.7 L 496.5 463.8 L 496 464 L 495 464.5 L 493.4 465.1 L 492.3 465.5 L 491 465.8 L 489.3 466.2 L 487.7 466.5 L 486.2 466.7 L 485.1 466.9 L 484 466.9 L 483.5 467 L 482.7 467.1 L 481.3 467 L 479.9 466.7 L 478.6 466.4 L 477.7 466 L 477.2 466.8 L 476.4 468 L 474.9 469.5 L 472.8 470.9 L 471.5 471.6 L 470.8 472.1 L 468.8 473 L 466.8 473.6 L 465.5 473.7 L 464.2 473.6 L 462.9 473.4 L 461.5 473.1 L 460.4 472.9 L 459.4 472.5 L 458.6 472.3 L 458.4 472.5 L 457.2 472.8 L 455.6 473 L 454 473.1 L 452.4 473.2 L 450.8 473 L 449.1 472.8 L 447.4 472.5 L 446.9 472.2 L 445.4 472.3 L 444 472.3 L 443.3 472.2 L 441.7 471.8 L 439.8 471.2 L 438.2 470.8 L 436.4 470.3 L 435.3 470 L 434.8 469.9 L 434.2 470.1 L 433.8 470.1 L 433.3 470 L 432.5 469.7 L 431.7 469.3 L 430.4 469.7 L 429 469.8 L 427.3 469.9 L 426.1 469.9 L 424.7 469.6 L 422.2 469.1 L 421.6 468.7 L 419.7 468.9 L 418.1 468.8 L 416.5 468.7 L 415.2 468.4 L 413.7 468 L 412.3 467.5 L 411.7 467.1 L 411 466.7 L 410.9 466.7 L 408.7 466.7 L 406.9 466.6 L 404.7 466.4 L 402.9 466.3 L 401.1 466 L 399.6 465.5 L 399.5 465.4 L 399.1 465.6 L 397.8 465.7 L 396.6 465.8 L 396 465.8 L 395.3 465.8 L 393.5 465.4 L 392.7 465.2 L 392.3 465.1 L 391.5 465.2 L 390.8 465.2 L 390.3 465.2 L 389.4 465.1 L 388.1 465.1 L 387.1 465 L 385.8 464.9 L 384.8 464.7 L 384.4 464.7 L 382.3 464.5 L 379.9 464 L 378.6 463.7 L 377.6 463.3 L 377.1 463.1 L 376 464.4 L 374.9 465.4 L 371.8 467.6 L 370.7 468.3 L 369.2 469.1 L 367.5 469.8 L 366.1 470.2 L 365 470.4 L 363.8 470.6 L 362.5 470.8 L 361.5 470.9 L 360.5 471 L 359.9 471.1 L 358.7 471.1 L 356.5 471 L 356.3 470.9 L 355.8 470.8 L 353.8 470.5 L 351.9 470 L 351 469.7 L 350.1 469.4 L 349.1 469 L 348.4 468.7 L 347.5 468.2 L 347 467.9 L 346.5 467.5 L 345.8 467.1 L 344.7 466.3 L 343.9 465.8 L 343.3 465.4 L 342.7 465 L 342.3 464.6 L 341.8 464.2 L 341.4 463.9 L 341 463.5 L 340.4 462.9 L 340.2 462.6 L 340 462.3 L 339.7 461.9 L 339.4 461.3 L 339.1 460.8 L 338.8 460.3 L 338.4 459.8 L 338.2 459.3 L 338 459 L 337.9 458.9 L 337.9 458.9 L 337.3 458.9 L 336.3 458.5 L 335.3 458 L 334.6 457.4 L 334.6 457.4 L 334.6 457.4 L 333.7 456.2 L 333.3 455.8 L 332 454.1 L 331 452.7 L 330.2 451.4 L 329.5 449.8 L 328.8 447.9 L 328.4 446.2 L 328 444.8 L 327.8 442.4 L 327.8 440.2 L 328.1 438 L 328 436.1 L 328 434.6 L 327.9 433.4 L 327.6 431.8 L 327.5 430.1 L 327.4 428.5 L 327.8 425.5 L 328.1 423.7 L 328.3 422.9 L 328.5 422.3 L 329.3 419 L 330.5 415.9 L 330.2 413.2 L 329.9 410.7 L 329.9 405.2 L 330.7 400.8 L 332.3 397.2 L 331.2 394.2 L 330.9 393.5 L 330.2 389.9 L 330.4 385.9 L 331.5 381.3 L 333.1 377.6 L 334.6 375.2 L 334.6 375.3 L 335.9 373.9 L 337.3 373.1 L 339 372.6 L 339 372.6 L 339.5 372.2 L 339.9 371.7 L 340.1 371.3 L 340.2 371.1 L 340.3 370.6 L 340.3 369.9 L 340.3 369.3 L 340.2 368 L 340.1 367.7 L 339.5 366.3 L 339.1 364.9 L 338.8 363.3 L 338.8 361.9 L 339 360.7 L 339.2 359.7 L 339.5 358.6 L 339.8 358 L 339.9 357.6 L 340.1 355.6 L 339.9 355.2 L 339.7 354.5 L 339.6 353.3 L 339.5 352.3 L 339.5 351.1 L 339.7 350.1 L 339.8 349.1 L 340 348.7 L 340 347.8 L 340.3 346.7 L 340.8 345.5 L 341.3 344 L 341.8 342.7 L 342.4 341.6 L 344.1 339.2 L 345.4 337.1 L 346.1 336.5 L 346.4 335.8 L 347 334.7 L 347.7 333.7 L 348.3 333.1 L 348.7 332.8 L 348.3 332.6 L 347.9 332.1 L 347.5 331.4 L 346.7 330.1 L 345.9 328.7 L 345 327.1 L 344.4 325.5 L 343.9 324.2 L 343.6 323.1 L 343.5 322.4 L 343.5 322.1 L 343.2 320.9 L 342.8 320 L 342.3 318.6 L 342.2 318 L 341.5 317.9 L 339.5 317.6 L 338.9 317.4 L 338.2 317.2 L 337.6 317.1 L 337.1 317 L 336.3 316.8 L 335.4 316.6 L 335.1 316.5 L 334.9 316.4 L 334.7 316.3 L 334.6 316.3 L 334.6 316.3 L 333 315.6 L 332.7 315.5 L 329.9 314 L 326.6 311.8 L 324.1 309.1 L 321.7 305.8 L 320.1 303.1 L 318.4 300 L 318 299.2 L 317 297.1 L 314.9 292.7 L 314.7 291.8 L 314.3 291.4 L 313.3 289.9 L 311.9 288 L 310 284.4 L 309.8 284 L 308.1 281.2 L 306.6 277.5 L 305.7 274 L 305.2 271.4 L 305.2 268.8 Z M 217.6 259.4 L 218.4 255.1 L 219.8 250.9 L 222.1 247.5 L 225.2 244.5 L 228.7 242 L 232 240 L 234.9 238.8 L 238 237.9 L 242.2 237.4 L 245.5 237.6 L 249.9 238.6 L 254.1 240.8 L 257.6 243.4 L 261 246.4 L 264.7 250.7 L 266.1 254.2 L 267.2 257.8 L 267.6 261.9 L 267.4 264.9 L 266.7 267.6 L 265.9 269.7 L 264.4 272.7 L 262.1 275.7 L 259.3 278.3 L 256.6 280.3 L 253.1 282.5 L 250.6 283.5 L 245.9 284.6 L 242.4 284.7 L 239.3 284.4 L 237.1 283.9 L 234.9 282.9 L 233.9 282.5 L 231.9 281.5 L 229.4 280 L 227.5 278.6 L 225.4 276.9 L 223.5 275 L 222 273.1 L 220.4 271.1 L 219.4 268.5 L 218.6 266.7 L 218.2 264.9 L 217.9 263 L 217.6 259.4 Z M 36 349.8 L 36 349.8 L 36.6 346 L 37.7 343.8 L 40 341.1 L 42.5 338.6 L 46 336.1 L 49.8 334.3 L 53.1 333.3 L 57.5 333.3 L 60.6 333.6 L 64.5 334.9 L 68.9 337.5 L 71.9 340.4 L 74.8 344.2 L 76.3 347.7 L 77.4 351.5 L 78.3 351.5 L 81.1 352.7 L 81.8 352.2 L 83.3 351.4 L 85.5 350.7 L 88 350.2 L 91 349.8 L 94.3 350.1 L 97.9 351.2 L 101.5 352.8 L 104.9 355.3 L 107.6 358 L 110.7 361.1 L 111.3 361.8 L 113.1 364 L 115.4 367.7 L 116.1 369.9 L 117.4 372.8 L 118.4 376.4 L 119 380.1 L 119.3 383.5 L 119 387 L 118.6 390.1 L 117.8 393.3 L 116.3 396.8 L 114.1 400.2 L 111.4 403.5 L 109.6 405.7 L 109.1 406.4 L 106.3 410.3 L 103.2 413.2 L 99.9 415.6 L 95.2 417.8 L 90.3 420.1 L 86.8 421.3 L 85.5 421.5 L 85.5 421.1 L 85.3 421.1 L 83.5 421.6 L 80.8 421.7 L 78.6 421.2 L 75 421.6 L 73.1 421.1 L 69.5 420.2 L 66.2 418.9 L 64.5 417.8 L 63.6 416.7 L 61.2 416 L 57.1 414.1 L 54 411.9 L 50.9 409.5 L 49.4 407.9 L 47.2 406.4 L 45 404.8 L 42.3 402.2 L 40.3 399.5 L 38.6 396.4 L 38.1 395.3 L 37 391.1 L 36.2 386.3 L 36.4 384 L 37.1 381.6 L 38.3 379.5 L 39.4 377.6 L 40.7 375.6 L 40.7 374.4 L 40.8 372.8 L 41 371.5 L 40.2 370.7 L 39.5 369.9 L 37.4 367.3 L 36.8 364.8 L 36.3 361 L 36 354.7 L 36 349.8 Z" fill="#d9e1ea" stroke="#9aa9bc" stroke-width="1" fill-rule="evenodd"/>
  <path d="M 305.2 268.8 L 305.6 266.8 L 306 264.9 L 307 261.6 L 308.8 258.3 L 311.5 254.7 L 313.4 252.9 L 315.7 251.7 L 318.4 250.4 L 320.6 249.4 L 322.3 248.5 L 333.6 246 L 334.6 245.8 L 334.6 245.8 L 334.7 245.7 L 334.8 245.5 L 334.9 245.4 L 335.2 245.2 L 335.4 245.2 L 335.5 245.1 L 335.8 244.9 L 336.2 244.8 L 336.6 244.6 L 336.8 244.5 L 337.2 244.2 L 337.7 243.9 L 338.3 243.5 L 339.2 242.9 L 339.7 242.5 L 340.3 242.2 L 340.8 242 L 341.1 241.8 L 341.5 241.6 L 342.2 241.4 L 342.7 241.1 L 343.3 240.8 L 343.9 240.4 L 344.5 240 L 345.4 239.6 L 346.1 239.1 L 346.7 238.7 L 347.1 238.4 L 347.5 238.2 L 347.9 238 L 348.4 237.6 L 348.8 237.3 L 349.6 236.8 L 350.3 236.3 L 351 235.9 L 351.2 235.8 L 351 235.4 L 350.8 235.2 L 350.8 235.1 L 350.6 234.6 L 350.4 234.4 L 350 233.6 L 349.6 232.8 L 349.2 232.1 L 348.7 230.8 L 348.3 229.9 L 348.2 229.4 L 347.8 228.5 L 347.5 227.8 L 347.3 227 L 347.1 226.3 L 346.9 225.5 L 346.6 224.5 L 346.4 224 L 346.2 223.1 L 346.1 222.7 L 346 222.5 L 345.9 221.8 L 345.8 221.6 L 345.7 220.8 L 345.7 220.8 L 345.6 220.1 L 345.6 219.8 L 345.4 218.8 L 345.4 217.9 L 345.4 217.1 L 345.3 216.7 L 345.3 215.9 L 345.4 214.1 L 345.6 213.1 L 345.7 212.4 L 345.9 212.4 L 347.6 212.4 L 347.8 212.4 L 348.8 210.1 L 350.4 206.9 L 352.1 204.4 L 354.3 201.8 L 356.3 199.9 L 357.5 198.9 L 358.1 198.4 L 358.9 198 L 360.6 196.3 L 362.4 194.8 L 364.1 193.2 L 366.9 191.2 L 370.1 189.5 L 373.5 188.4 L 375.6 187.8 L 376.1 187.7 L 378.6 186.8 L 382 186 L 383.2 185.8 L 384.4 185.6 L 385.7 185.1 L 387.5 184.6 L 389.2 184.3 L 389.3 184.3 L 391.1 183.9 L 392.2 183.6 L 392.3 183.6 L 393.5 183.5 L 395.5 183.3 L 397.1 183.1 L 398.9 183 L 400.3 183.1 L 402.5 183.2 L 404.7 183.3 L 406.3 183.3 L 408.5 183.6 L 410.4 183.7 L 413.1 184 L 415.7 184.1 L 419.5 184.5 L 423.8 184.9 L 424.6 185 L 427.2 185.3 L 429.5 185.8 L 432.1 186.3 L 433.8 186.9 L 434.2 187 L 434.2 187.1 L 434.2 188 L 434.7 188.1 L 435.8 188.5 L 437.6 189.3 L 440.2 190.6 L 441.5 191.3 L 442 191.5 L 444 192.2 L 444 192.2 L 445.7 193.2 L 446.5 193.5 L 448.6 193.8 L 449.6 193.9 L 450.8 194.1 L 452.4 194.4 L 453.4 194.8 L 454.8 194.6 L 455.6 194.6 L 456.5 194.6 L 458.9 194.8 L 461.2 195.2 L 463.2 195.7 L 464.1 196 L 465.5 196.4 L 466.6 196.7 L 468.6 197.1 L 470.7 197.6 L 472.4 197 L 473.1 196.8 L 473.1 195.4 L 473.5 195.3 L 475.7 194.9 L 480.3 194.1 L 484.1 193.8 L 484.2 193.8 L 484.9 193.8 L 485.8 193.8 L 487.8 193.7 L 489.1 193.8 L 490.9 193.8 L 492.2 193.8 L 493.4 193.7 L 494.9 193.9 L 496.3 194.1 L 499.1 194.7 L 501.3 194 L 504.6 193.5 L 506.9 193.3 L 508.1 193.2 L 509.8 193.2 L 512.1 193.2 L 515.7 193.4 L 519.3 193.8 L 522.6 194.3 L 525.5 194.8 L 527.8 195.5 L 528.3 195.6 L 531.3 196.8 L 533 197.6 L 533.8 198.1 L 535.5 199.2 L 537.3 199.6 L 539.8 200.7 L 541.1 200.2 L 541.3 200.1 L 543.4 199.6 L 543.5 199.6 L 545.3 199.5 L 547.3 198.8 L 549.3 198.4 L 551.5 197.9 L 552.2 197.3 L 553.8 196.6 L 556 196 L 558.4 195.5 L 561.5 195.1 L 564.5 195.1 L 565.9 195.2 L 567.3 194.8 L 568.3 194.9 L 569.4 194.9 L 571.2 194.2 L 574 193.6 L 576.6 193.3 L 579.6 193.1 L 583.1 193 L 583.7 193.1 L 585.4 193.2 L 587.7 193.5 L 588.6 193.5 L 590.5 193.2 L 592.6 193.3 L 594.7 193.6 L 596.7 194 L 598.6 194.8 L 600.4 194.3 L 602.1 194.2 L 602.4 194.1 L 604.2 194.2 L 606.8 194.5 L 608.2 194.4 L 610.8 194.7 L 613.9 195.2 L 614.9 195.5 L 617.4 195.9 L 620.1 196.7 L 620.4 196.7 L 621.1 196.7 L 623.6 196.7 L 627.3 197.4 L 630.3 198.3 L 631.6 198.7 L 633.5 199.4 L 634.5 199.7 L 635.3 200 L 637.5 200.2 L 638 200.4 L 639 200.6 L 640.7 201 L 641.9 201.3 L 642.7 200.5 L 644.4 199.2 L 646 198 L 647.2 197.3 L 647.8 197 L 650.1 195.9 L 651.1 195.6 L 652.1 195.2 L 653.8 195 L 655.5 194.7 L 657.2 194.5 L 658.5 194.4 L 658.7 194.4 L 658.8 194.4 L 660 194.7 L 661.3 194.1 L 662.5 194 L 663.7 193.8 L 665.4 193.4 L 666.8 193.3 L 667.6 193.2 L 668.9 193.2 L 673.3 193.2 L 677 193.5 L 679.8 194 L 681.7 194.5 L 681.7 194.5 L 682.5 194.4 L 683.3 194.3 L 684.6 194.5 L 686.6 194.8 L 687.9 194.6 L 689.5 194.4 L 691.7 194.3 L 693.1 194.4 L 694.2 194.4 L 694.5 194.4 L 695.9 194.4 L 697.6 194.6 L 699.9 195.4 L 702 196.3 L 704.1 197.3 L 705.8 197.8 L 707.8 198.7 L 708.8 198.8 L 709.7 199.1 L 711.2 199.5 L 712.1 199.7 L 712.8 199.7 L 714.7 199.7 L 717.1 199.8 L 718.5 200.1 L 719.8 199.6 L 722 199.3 L 724.5 199.1 L 726.8 199.1 L 729 199.2 L 731.2 199.7 L 732.3 199.9 L 733 199.9 L 733.1 200 L 734.5 200.3 L 736 200.6 L 738.7 201.6 L 740.3 201.5 L 742.7 201.5 L 745.4 201.9 L 748.1 202.4 L 749.9 201.7 L 752.3 201 L 755.3 200.4 L 758 200.5 L 758 200.5 L 759.7 200.6 L 761.9 200.9 L 762.7 201 L 764.7 200.9 L 766.4 201 L 768 201 L 770 201 L 773.2 201 L 777.3 201.1 L 781.1 201.3 L 781.2 201.3 L 782.9 201.9 L 784.5 202.4 L 784.9 202.6 L 786.5 202.5 L 787.8 202.8 L 789 203.1 L 789.7 203.5 L 791 203.3 L 792.7 203.4 L 794.9 203.3 L 796.9 203.2 L 798.9 203.4 L 800.8 203.7 L 802.8 204.2 L 804.3 204 L 805.6 203.9 L 807.4 204 L 810.1 203.9 L 812.1 204 L 814.3 204.2 L 816.2 204.6 L 819.1 205.6 L 819.7 205.8 L 821.2 206 L 822.3 206.5 L 824 206.7 L 825.1 206.7 L 825.4 206.7 L 826.4 206.2 L 827.8 205.8 L 829.3 205.3 L 831 205.1 L 832.8 205 L 833.6 204.8 L 834.5 204.7 L 835.2 204.6 L 837.5 204.9 L 839 205.5 L 841.1 205.8 L 843.4 206.4 L 846.4 207.3 L 848.8 208.1 L 850.8 209 L 852.5 210 L 853.3 210.5 L 857 210.7 L 859.5 211.2 L 860.2 210.8 L 862.8 210.1 L 866 209.4 L 868.7 209.3 L 869.3 209.3 L 872.7 209.6 L 876.4 210.2 L 877.7 210.5 L 879.9 211.1 L 881.6 211.8 L 882.6 212.4 L 883.8 213.2 L 885.6 214.4 L 886.7 215.1 L 888.7 216.4 L 889.3 216.9 L 890.5 216.8 L 890.9 216.7 L 892.1 216.6 L 892.7 216.7 L 893.5 216.8 L 895 217 L 896.5 217.1 L 896.9 217.1 L 897.8 217.2 L 899.3 217.4 L 900.2 217.6 L 902.2 218.1 L 904.5 218.8 L 906.7 219.6 L 908.7 220.3 L 910.2 220.7 L 912 221 L 913.3 221 L 915.3 221 L 917.2 221 L 918.3 221.1 L 919.2 221.1 L 921.4 221.4 L 923.5 221.9 L 925.9 222.2 L 927.7 222.6 L 929.4 222.9 L 930.8 223.4 L 931.7 223.8 L 932.4 224.4 L 932.4 224.4 L 932.4 226.4 L 934 226.8 L 934.9 226.8 L 937.2 227.7 L 939.1 228.6 L 942.7 230.7 L 944.6 232.6 L 945.9 233.8 L 946.7 235.1 L 946.7 235.1 L 948.3 237.5 L 949.5 237.9 L 952.5 239 L 955.3 240.5 L 955.3 240.5 L 955.6 240.7 L 957.9 242.6 L 959.5 244.3 L 960.7 245.8 L 962.5 244.4 L 965.6 242.6 L 967.3 241.8 L 968.9 241.5 L 969.5 240.6 L 970.8 238.7 L 972.9 236.6 L 973.7 235.9 L 976 234.4 L 978 233.4 L 980 232.6 L 981.6 232.2 L 982.2 232.1 L 988.7 233.3 L 997.3 235.4 L 1005.5 238.6 L 1012.5 241.6 L 1021.1 245.4 L 1028.6 248.9 L 1032 250.6 L 1034.9 252.1 L 1037.1 252.4 L 1038.4 252.8 L 1038.8 252.9 L 1040.2 253.9 L 1043 254.4 L 1044.2 255.1 L 1045.1 255.7 L 1046.2 256.3 L 1049.4 256 L 1053.8 256.2 L 1055.8 256.4 L 1059.6 257.1 L 1062 257.4 L 1062 257.4 L 1063.2 255.1 L 1064.3 253.1 L 1066.1 250.9 L 1068.5 248.9 L 1071.5 247.1 L 1074.6 245.6 L 1077.9 244.8 L 1081 244.6 L 1081.9 244.7 L 1084 244.9 L 1086.7 245.4 L 1089.1 246.3 L 1091 247.1 L 1093.4 248.4 L 1095.8 249.8 L 1097.8 250.3 L 1100.1 251.1 L 1102.6 252.2 L 1105.1 253.9 L 1107.1 255.5 L 1108.9 257.5 L 1109.4 257.9 L 1110.4 258.9 L 1117 258.9 L 1117.6 258.7 L 1118.7 258.2 L 1119.8 257.9 L 1121.3 257.6 L 1124.2 257.2 L 1127.2 256.8 L 1130.2 255.7 L 1131.7 255.1 L 1133.8 254.7 L 1137.2 254.6 L 1139.7 254.8 L 1143.1 255.6 L 1145.6 256.7 L 1148.1 258.1 L 1151.5 260.9 L 1153.4 263 L 1154.5 264.9 L 1155.2 266 L 1157.2 268.6 L 1158.3 270.5 L 1158.7 271.4 L 1159.8 274.3 L 1160 275.5 L 1161.5 278.6 L 1162.8 281.6 L 1163.3 285.3 L 1164 290 L 1163.9 294.1 L 1162.7 298 L 1161.2 301.2 L 1159.2 304.3 L 1157.5 307.3 L 1156.3 309.7 L 1155 312.9 L 1153.5 315 L 1151.7 317 L 1151.2 317.4 L 1150.8 317.4 L 1149.3 318.8 L 1146.9 320.2 L 1146.6 320.3 L 1143.5 321.5 L 1140.5 322.6 L 1137.1 322.8 L 1134.3 322.7 L 1131.7 322.1 L 1130.4 321.6 L 1128.9 323 L 1126.3 324.5 L 1122.2 325.7 L 1116.9 326.7 L 1112.7 326.1 L 1108.9 324.9 L 1105.4 323.1 L 1103.2 321.3 L 1101.3 318.8 L 1100.1 318.9 L 1098.1 319.1 L 1095.2 318.6 L 1093.9 318.1 L 1092.1 317.4 L 1090.1 316.4 L 1087.5 315.1 L 1085.1 313.4 L 1083.5 311.8 L 1083.4 311.8 L 1081.9 310.4 L 1081.9 310.4 L 1081.9 310.4 L 1080.5 309.3 L 1078.2 308.8 L 1073.6 306.8 L 1070.2 305.5 L 1066.5 302.8 L 1065.1 301.1 L 1065 301 L 1062.7 299.5 L 1062.3 299.2 L 1060.7 299.5 L 1056.7 299.6 L 1052.2 298.9 L 1047.2 298.4 L 1048.7 302.7 L 1049.2 306 L 1049 309 L 1048.5 312.1 L 1047.9 314.6 L 1047.8 314.8 L 1046.5 317.4 L 1045.7 319.2 L 1042.1 323.5 L 1039.3 325.3 L 1036.1 326.9 L 1032 328.3 L 1032 327.3 L 1027.1 327.9 L 1023.8 329.2 L 1018.4 329.9 L 1015.2 333.2 L 1014.3 335.4 L 1012.3 338.5 L 1011.4 340.7 L 1011.2 341.2 L 1010.1 344 L 1012.8 341.8 L 1016.3 338.8 L 1016.4 338.8 L 1017.8 337 L 1021.8 334.3 L 1022.2 334 L 1022.4 333.9 L 1027.6 331.7 L 1032 331.1 L 1035.1 330.7 L 1037.3 329.7 L 1040.1 329.1 L 1041.7 328.7 L 1046.1 328.2 L 1052.3 329.5 L 1054.7 330.7 L 1056.6 331.6 L 1059.2 333.9 L 1063 333.8 L 1069 333 L 1071.5 332.8 L 1073.8 332.6 L 1081.9 333.6 L 1084.8 334 L 1084.8 334 L 1089 334.5 L 1089.3 334.5 L 1092.5 335.1 L 1096.1 336 L 1099.1 337.1 L 1100.1 337.6 L 1103.3 337.7 L 1105.1 338.1 L 1107.9 337.7 L 1110.4 337.8 L 1112.9 338.4 L 1116.8 338.2 L 1120.2 338.4 L 1122.8 339.1 L 1125.8 340.4 L 1128.4 341.9 L 1129.6 342.5 L 1130.4 342.9 L 1131.7 343.9 L 1133.5 345.8 L 1134.5 346.8 L 1136.6 348.1 L 1138.7 349.8 L 1140.6 351.9 L 1142.3 354.2 L 1144 357.5 L 1145 361.2 L 1145.4 364.3 L 1145.3 367.2 L 1145 369.9 L 1144.3 372.6 L 1142.2 377.3 L 1139.8 380.1 L 1137 382.7 L 1134.1 384.6 L 1131.7 386.1 L 1129.5 386.9 L 1126.4 387.5 L 1125 387.6 L 1123.8 387.8 L 1122.6 387.7 L 1120.3 389 L 1117.1 390.2 L 1113.2 391.3 L 1109.8 391.8 L 1106.7 391.6 L 1104.2 393.3 L 1101.8 394.3 L 1101.7 394.3 L 1098.1 395.4 L 1094.6 395.8 L 1092.7 395.7 L 1092.4 395.6 L 1091.5 395.4 L 1089.4 396.1 L 1087.1 397 L 1083.9 397.7 L 1081.9 398.1 L 1080.8 398.2 L 1077.1 398.1 L 1075.3 397.8 L 1071.1 400.9 L 1067.2 402.4 L 1064.1 403.3 L 1061.8 403.5 L 1058.9 405.1 L 1055.7 405.8 L 1053.3 406.3 L 1052.6 406.4 L 1049.4 406.3 L 1047 405.8 L 1046.2 405.9 L 1043.5 406 L 1040.6 406 L 1040.5 406 L 1037.2 405.3 L 1034.6 404.3 L 1033.5 403.8 L 1032.9 403.9 L 1032 404.3 L 1031 405.5 L 1028.8 406.6 L 1026.1 407.8 L 1022.2 409 L 1019.1 409.5 L 1015.9 409.8 L 1012.1 409.5 L 1009.5 408.8 L 1006.4 407.6 L 1004.5 406.8 L 1002.3 406.2 L 1002.1 406.1 L 999.5 405.3 L 996.6 404.2 L 994.1 402.5 L 991.8 400.8 L 990 399 L 987.8 397.1 L 985.8 394.6 L 985.6 394.3 L 984 392 L 982.2 388.9 L 981.1 386.5 L 980.3 384 L 979.8 380.1 L 979.8 376.4 L 979.6 372.6 L 979.7 369.9 L 979.7 369.9 L 979.9 367.4 L 980.6 365.2 L 982.2 361.6 L 982.2 361.6 L 982.6 360.7 L 983.9 359 L 984.8 356.8 L 984.8 356.8 L 984 357.4 L 983.3 357.9 L 982.7 358.2 L 982.2 358.4 L 979.8 359.8 L 978.9 360.4 L 975.6 362.3 L 972.9 363.9 L 970.2 365.5 L 969.1 366.1 L 967.1 367.1 L 967.1 367.2 L 965.5 367.9 L 963.9 368.2 L 962.5 368.3 L 961.1 368.6 L 959.8 368.7 L 958.5 368.6 L 957.3 368.5 L 956.4 368.4 L 956 369.2 L 955.4 369.9 L 953.8 371.3 L 952.4 372.7 L 950.6 374.3 L 948.4 375.6 L 946.6 376.5 L 945.8 376.9 L 945.5 378.5 L 944.9 380.7 L 943.9 383.5 L 943.5 384.2 L 942.7 385.8 L 941.5 387.7 L 939.5 389.8 L 937.7 391.3 L 936.6 391.8 L 936.2 395.2 L 935.3 397.4 L 934.4 399.3 L 933.8 400.2 L 933.5 401.9 L 932.8 404.3 L 932.4 405.2 L 931.4 406.5 L 929.8 408.2 L 927.8 409.9 L 925.9 410.9 L 922.6 412.4 L 919.3 413.5 L 919.7 415.3 L 919.7 417.4 L 919.4 420.2 L 918.5 422.2 L 916.9 425.9 L 914.6 429.1 L 913.3 431.1 L 910.3 433.5 L 907.9 435.1 L 906.2 435.7 L 905.8 435.9 L 903.3 436.7 L 901.2 437.2 L 898.5 440.5 L 894 444.4 L 891.4 445.9 L 884.7 447.4 L 884.4 447.4 L 883.1 447.4 L 882.6 447.4 L 882.6 447.4 L 881.3 447.6 L 879.5 448.5 L 877.1 449.7 L 874.7 450.7 L 872.7 451.6 L 870.5 452.3 L 868.2 452.9 L 865.9 453.4 L 863.8 453.8 L 861.9 454.1 L 860.6 454.2 L 860.4 454.2 L 859.3 454.3 L 857.7 454.4 L 856.5 454.6 L 854.7 454.7 L 852.6 454.7 L 851 454.6 L 849.1 454.5 L 848.7 454.4 L 847.1 454.2 L 846.3 454.1 L 845.7 454 L 844.3 453.7 L 843.4 453.6 L 842.4 455.1 L 841.9 455.6 L 841.5 456 L 841.4 456.1 L 840.4 457.2 L 840.2 457.4 L 838.8 458.7 L 837.6 459.6 L 837.3 459.8 L 836.1 460.8 L 834.6 461.9 L 832.8 463.3 L 831.5 464.1 L 829.3 465 L 825.1 465.8 L 822.7 465.6 L 819.5 465.4 L 816 465.1 L 812.8 464.3 L 810.2 463.2 L 809.5 462.7 L 808.3 462 L 806.9 461.3 L 805.8 460.8 L 803.5 459.6 L 802 458.8 L 801.7 459.2 L 799.3 461.3 L 795.7 464.4 L 794.8 465 L 791.3 467.8 L 787.1 470.6 L 783.9 471.9 L 782.9 472.2 L 782.5 472.3 L 780.3 472.5 L 778.1 472.6 L 775.8 472.6 L 773.4 472.6 L 772.2 472.4 L 770.7 472.3 L 768.3 472.1 L 766 471.9 L 763.9 471.6 L 762.7 471.3 L 761 470.6 L 759.3 472 L 757.9 472.9 L 757.5 473.2 L 755.4 474.6 L 755.4 474.6 L 747.8 478.1 L 747.6 478.2 L 744.8 478.9 L 744.6 478.9 L 742 479.1 L 738.6 479.1 L 735.6 479 L 733.1 478.4 L 733.1 478.4 L 731.6 478.1 L 730 477.7 L 728.2 477.1 L 726.2 476.1 L 724.3 475.3 L 723.2 474.6 L 723.9 474.6 L 719.9 472.4 L 719.3 472.3 L 718.3 472.1 L 717.3 472 L 716 471.7 L 715.3 471.5 L 713.3 471.1 L 711.8 470.8 L 711.4 471.1 L 710.6 471.5 L 708.9 472 L 706.5 472.4 L 703.8 472.7 L 703.8 472.7 L 700.4 472.8 L 698.5 472.7 L 697.3 472.7 L 697 472.6 L 696.5 472.7 L 695.1 473 L 694.3 473.1 L 693.2 473.3 L 691.2 473.3 L 689.7 473.2 L 689.7 473.2 L 689.2 473.6 L 688.3 474 L 687.2 474.5 L 686.6 474.6 L 688.1 474.6 L 686 475.4 L 685.1 475.7 L 684.1 475.9 L 683.3 475.8 L 682.5 475.9 L 680.8 476.2 L 677.9 476.2 L 675.5 476.1 L 673.2 475.6 L 670.9 475.1 L 669.7 474.6 L 668.8 474.3 L 668.1 474 L 667.1 473.5 L 666.3 473.1 L 665.8 472.8 L 665.6 472.7 L 664.8 472.1 L 664.2 471.4 L 663.4 470.9 L 663.4 470.9 L 663.4 470.9 L 658.1 474.6 L 656.6 475.2 L 654.5 475.6 L 652 476 L 650.4 476.1 L 648.6 476 L 648.1 477.1 L 647.1 478.3 L 646.5 478.9 L 645.5 479.9 L 644 481.5 L 642.8 482.6 L 641.5 483.4 L 640.2 484.1 L 638.9 484.7 L 637.7 485.4 L 635.7 485.9 L 635.2 486.4 L 634.5 487 L 633.5 487.8 L 631.6 488.8 L 628 490.4 L 624.3 491.4 L 621 492 L 618.1 491.9 L 614 491.3 L 610.7 490 L 607.7 488.4 L 604.9 486.1 L 602.8 483.5 L 601.4 481.3 L 601.1 480.8 L 600.2 479.2 L 599.3 476.6 L 598.9 474.6 L 598.7 473.9 L 598.7 473.2 L 598.7 472.4 L 599 471.1 L 599 470.9 L 599 469.5 L 599.2 468.1 L 599.4 467.1 L 599.8 465.4 L 600.2 464.4 L 600.6 463.5 L 601 462.4 L 601.6 461.3 L 602.1 460.5 L 602.7 459.4 L 603.4 458.6 L 603.8 457.8 L 603 458.1 L 602 458.6 L 601.2 458.9 L 600.4 459.2 L 599.1 459.5 L 598 459.6 L 596.8 459.7 L 595.1 459.5 L 593.8 459.3 L 592.7 459 L 591.6 458.7 L 589.9 457.9 L 589.3 457.6 L 588.7 457.3 L 587.8 456.9 L 587.3 457.1 L 586.5 457.3 L 585.8 457.5 L 584.7 457.6 L 584.1 457.7 L 583.7 457.6 L 582.9 457.7 L 581.8 457.9 L 579.9 458.1 L 578.9 458.2 L 578.4 458.3 L 577.5 458.3 L 576.9 458.3 L 576.3 458.8 L 575.4 459.6 L 573.9 460.6 L 572.5 461.4 L 571.2 462.1 L 569.8 462.7 L 568.5 463.3 L 566.9 464 L 565.9 464.3 L 564.7 464.6 L 564 464.6 L 562.8 464.7 L 561.7 464.7 L 560.8 464.5 L 559.9 464.2 L 558.7 463.8 L 557.4 463.4 L 556.3 462.9 L 555.5 462.5 L 554.7 462.1 L 554 461.7 L 553.4 461.4 L 552.5 461 L 551.8 460.6 L 551.2 460.2 L 550.6 459.9 L 549.6 459.3 L 549 458.9 L 548.6 458.5 L 548.3 457.9 L 547.5 458 L 547 458.1 L 546 458.2 L 544.9 458.3 L 544.1 458.2 L 543.2 458 L 542.5 457.9 L 542.2 457.8 L 541.2 457.5 L 540.3 457.2 L 539.2 456.7 L 539.2 456.7 L 538.5 456.4 L 538.3 456.3 L 537.7 456.5 L 537.4 456.6 L 537.1 456.7 L 536.4 456.7 L 535.8 456.9 L 535.2 456.9 L 534.3 456.8 L 533.8 456.8 L 532.9 456.5 L 531.9 456.3 L 530.9 456.2 L 529.9 455.9 L 529 455.8 L 528.5 456.2 L 527.8 456.5 L 526.8 456.8 L 525.7 457 L 524.5 457.1 L 524.1 457.1 L 523.5 457.1 L 522.1 457.1 L 520.8 457 L 519.3 456.7 L 518.5 456.6 L 518.1 456.8 L 517.3 457.2 L 516.1 458.1 L 514.9 458.9 L 513.9 459.5 L 512.8 460.1 L 511.8 460.6 L 510.7 461 L 509.7 461.5 L 508.6 461.8 L 507.4 461.8 L 506.6 461.8 L 506 462.2 L 505.3 462.6 L 503.7 463.1 L 502.2 463.4 L 500.9 463.6 L 499.4 463.7 L 498.2 463.7 L 497.9 463.7 L 497.3 463.7 L 496.5 463.8 L 496 464 L 495 464.5 L 493.4 465.1 L 492.3 465.5 L 491 465.8 L 489.3 466.2 L 487.7 466.5 L 486.2 466.7 L 485.1 466.9 L 484 466.9 L 483.5 467 L 482.7 467.1 L 481.3 467 L 479.9 466.7 L 478.6 466.4 L 477.7 466 L 477.2 466.8 L 476.4 468 L 474.9 469.5 L 472.8 470.9 L 471.5 471.6 L 470.8 472.1 L 468.8 473 L 466.8 473.6 L 465.5 473.7 L 464.2 473.6 L 462.9 473.4 L 461.5 473.1 L 460.4 472.9 L 459.4 472.5 L 458.6 472.3 L 458.4 472.5 L 457.2 472.8 L 455.6 473 L 454 473.1 L 452.4 473.2 L 450.8 473 L 449.1 472.8 L 447.4 472.5 L 446.9 472.2 L 445.4 472.3 L 444 472.3 L 443.3 472.2 L 441.7 471.8 L 439.8 471.2 L 438.2 470.8 L 436.4 470.3 L 435.3 470 L 434.8 469.9 L 434.2 470.1 L 433.8 470.1 L 433.3 470 L 432.5 469.7 L 431.7 469.3 L 430.4 469.7 L 429 469.8 L 427.3 469.9 L 426.1 469.9 L 424.7 469.6 L 422.2 469.1 L 421.6 468.7 L 419.7 468.9 L 418.1 468.8 L 416.5 468.7 L 415.2 468.4 L 413.7 468 L 412.3 467.5 L 411.7 467.1 L 411 466.7 L 410.9 466.7 L 408.7 466.7 L 406.9 466.6 L 404.7 466.4 L 402.9 466.3 L 401.1 466 L 399.6 465.5 L 399.5 465.4 L 399.1 465.6 L 397.8 465.7 L 396.6 465.8 L 396 465.8 L 395.3 465.8 L 393.5 465.4 L 392.7 465.2 L 392.3 465.1 L 391.5 465.2 L 390.8 465.2 L 390.3 465.2 L 389.4 465.1 L 388.1 465.1 L 387.1 465 L 385.8 464.9 L 384.8 464.7 L 384.4 464.7 L 382.3 464.5 L 379.9 464 L 378.6 463.7 L 377.6 463.3 L 377.1 463.1 L 376 464.4 L 374.9 465.4 L 371.8 467.6 L 370.7 468.3 L 369.2 469.1 L 367.5 469.8 L 366.1 470.2 L 365 470.4 L 363.8 470.6 L 362.5 470.8 L 361.5 470.9 L 360.5 471 L 359.9 471.1 L 358.7 471.1 L 356.5 471 L 356.3 470.9 L 355.8 470.8 L 353.8 470.5 L 351.9 470 L 351 469.7 L 350.1 469.4 L 349.1 469 L 348.4 468.7 L 347.5 468.2 L 347 467.9 L 346.5 467.5 L 345.8 467.1 L 344.7 466.3 L 343.9 465.8 L 343.3 465.4 L 342.7 465 L 342.3 464.6 L 341.8 464.2 L 341.4 463.9 L 341 463.5 L 340.4 462.9 L 340.2 462.6 L 340 462.3 L 339.7 461.9 L 339.4 461.3 L 339.1 460.8 L 338.8 460.3 L 338.4 459.8 L 338.2 459.3 L 338 459 L 337.9 458.9 L 337.9 458.9 L 337.3 458.9 L 336.3 458.5 L 335.3 458 L 334.6 457.4 L 334.6 457.4 L 334.6 457.4 L 333.7 456.2 L 333.3 455.8 L 332 454.1 L 331 452.7 L 330.2 451.4 L 329.5 449.8 L 328.8 447.9 L 328.4 446.2 L 328 444.8 L 327.8 442.4 L 327.8 440.2 L 328.1 438 L 328 436.1 L 328 434.6 L 327.9 433.4 L 327.6 431.8 L 327.5 430.1 L 327.4 428.5 L 327.8 425.5 L 328.1 423.7 L 328.3 422.9 L 328.5 422.3 L 329.3 419 L 330.5 415.9 L 330.2 413.2 L 329.9 410.7 L 329.9 405.2 L 330.7 400.8 L 332.3 397.2 L 331.2 394.2 L 330.9 393.5 L 330.2 389.9 L 330.4 385.9 L 331.5 381.3 L 333.1 377.6 L 334.6 375.2 L 334.6 375.3 L 335.9 373.9 L 337.3 373.1 L 339 372.6 L 339 372.6 L 339.5 372.2 L 339.9 371.7 L 340.1 371.3 L 340.2 371.1 L 340.3 370.6 L 340.3 369.9 L 340.3 369.3 L 340.2 368 L 340.1 367.7 L 339.5 366.3 L 339.1 364.9 L 338.8 363.3 L 338.8 361.9 L 339 360.7 L 339.2 359.7 L 339.5 358.6 L 339.8 358 L 339.9 357.6 L 340.1 355.6 L 339.9 355.2 L 339.7 354.5 L 339.6 353.3 L 339.5 352.3 L 339.5 351.1 L 339.7 350.1 L 339.8 349.1 L 340 348.7 L 340 347.8 L 340.3 346.7 L 340.8 345.5 L 341.3 344 L 341.8 342.7 L 342.4 341.6 L 344.1 339.2 L 345.4 337.1 L 346.1 336.5 L 346.4 335.8 L 347 334.7 L 347.7 333.7 L 348.3 333.1 L 348.7 332.8 L 348.3 332.6 L 347.9 332.1 L 347.5 331.4 L 346.7 330.1 L 345.9 328.7 L 345 327.1 L 344.4 325.5 L 343.9 324.2 L 343.6 323.1 L 343.5 322.4 L 343.5 322.1 L 343.2 320.9 L 342.8 320 L 342.3 318.6 L 342.2 318 L 341.5 317.9 L 339.5 317.6 L 338.9 317.4 L 338.2 317.2 L 337.6 317.1 L 337.1 317 L 336.3 316.8 L 335.4 316.6 L 335.1 316.5 L 334.9 316.4 L 334.7 316.3 L 334.6 316.3 L 334.6 316.3 L 333 315.6 L 332.7 315.5 L 329.9 314 L 326.6 311.8 L 324.1 309.1 L 321.7 305.8 L 320.1 303.1 L 318.4 300 L 318 299.2 L 317 297.1 L 314.9 292.7 L 314.7 291.8 L 314.3 291.4 L 313.3 289.9 L 311.9 288 L 310 284.4 L 309.8 284 L 308.1 281.2 L 306.6 277.5 L 305.7 274 L 305.2 271.4 L 305.2 268.8 Z M 217.6 259.4 L 218.4 255.1 L 219.8 250.9 L 222.1 247.5 L 225.2 244.5 L 228.7 242 L 232 240 L 234.9 238.8 L 238 237.9 L 242.2 237.4 L 245.5 237.6 L 249.9 238.6 L 254.1 240.8 L 257.6 243.4 L 261 246.4 L 264.7 250.7 L 266.1 254.2 L 267.2 257.8 L 267.6 261.9 L 267.4 264.9 L 266.7 267.6 L 265.9 269.7 L 264.4 272.7 L 262.1 275.7 L 259.3 278.3 L 256.6 280.3 L 253.1 282.5 L 250.6 283.5 L 245.9 284.6 L 242.4 284.7 L 239.3 284.4 L 237.1 283.9 L 234.9 282.9 L 233.9 282.5 L 231.9 281.5 L 229.4 280 L 227.5 278.6 L 225.4 276.9 L 223.5 275 L 222 273.1 L 220.4 271.1 L 219.4 268.5 L 218.6 266.7 L 218.2 264.9 L 217.9 263 L 217.6 259.4 Z M 36 349.8 L 36 349.8 L 36.6 346 L 37.7 343.8 L 40 341.1 L 42.5 338.6 L 46 336.1 L 49.8 334.3 L 53.1 333.3 L 57.5 333.3 L 60.6 333.6 L 64.5 334.9 L 68.9 337.5 L 71.9 340.4 L 74.8 344.2 L 76.3 347.7 L 77.4 351.5 L 78.3 351.5 L 81.1 352.7 L 81.8 352.2 L 83.3 351.4 L 85.5 350.7 L 88 350.2 L 91 349.8 L 94.3 350.1 L 97.9 351.2 L 101.5 352.8 L 104.9 355.3 L 107.6 358 L 110.7 361.1 L 111.3 361.8 L 113.1 364 L 115.4 367.7 L 116.1 369.9 L 117.4 372.8 L 118.4 376.4 L 119 380.1 L 119.3 383.5 L 119 387 L 118.6 390.1 L 117.8 393.3 L 116.3 396.8 L 114.1 400.2 L 111.4 403.5 L 109.6 405.7 L 109.1 406.4 L 106.3 410.3 L 103.2 413.2 L 99.9 415.6 L 95.2 417.8 L 90.3 420.1 L 86.8 421.3 L 85.5 421.5 L 85.5 421.1 L 85.3 421.1 L 83.5 421.6 L 80.8 421.7 L 78.6 421.2 L 75 421.6 L 73.1 421.1 L 69.5 420.2 L 66.2 418.9 L 64.5 417.8 L 63.6 416.7 L 61.2 416 L 57.1 414.1 L 54 411.9 L 50.9 409.5 L 49.4 407.9 L 47.2 406.4 L 45 404.8 L 42.3 402.2 L 40.3 399.5 L 38.6 396.4 L 38.1 395.3 L 37 391.1 L 36.2 386.3 L 36.4 384 L 37.1 381.6 L 38.3 379.5 L 39.4 377.6 L 40.7 375.6 L 40.7 374.4 L 40.8 372.8 L 41 371.5 L 40.2 370.7 L 39.5 369.9 L 37.4 367.3 L 36.8 364.8 L 36.3 361 L 36 354.7 L 36 349.8 Z" fill="#1e5ea9" fill-opacity="0.86" stroke="#0b3b75" stroke-width="1.2" fill-rule="evenodd"/>
</svg>
