<?xml version="1.0" encoding="UTF-8"?>
<svg xmlns="http://www.w3.org/2000/svg" width="1200" height="675" viewBox="0 0 1200 675" role="img" aria-label="VI-0 congressional district map">
  <path d="M 381.7 168 L 381.8 159.4 L 383.8 152.4 L 387.8 145.2 L 392.7 139.7 L 391.5 134.1 L 391.5 134 L 391.1 128.4 L 391.2 128.4 L 394.4 118 L 397.7 110.3 L 398.9 108.6 L 401.6 104.7 L 401.8 104.2 L 402.5 102.6 L 402.8 102 L 406.5 96.9 L 406.9 94.3 L 407.3 92.3 L 408.2 88.8 L 409.5 85.7 L 409 77.7 L 410 69.1 L 413.4 62.1 L 418.1 54.3 L 424 48.8 L 431.6 44.7 L 445.2 39.8 L 458.2 40.2 L 465.8 42.9 L 474.7 47.2 L 481.2 53.4 L 484.8 50.9 L 486.8 50 L 490.6 48.6 L 495 47 L 498.5 46.3 L 503.6 45.8 L 507.5 46.1 L 514 47.4 L 520.2 49.4 L 521.8 47.5 L 523.2 45.8 L 525.5 43.8 L 528.4 41.9 L 532.1 39.9 L 535.4 38.4 L 535.8 38.2 L 540.3 36.8 L 540.3 36.8 L 544.7 36.4 L 549.4 36 L 554.7 36.4 L 555.8 36.6 L 558 37.2 L 560.7 38 L 571.9 75 L 571.9 75.7 L 572.4 77.8 L 572.4 78.2 L 572.8 78.6 L 573.2 79.1 L 578.5 85.6 L 578.8 85.7 L 581.7 86.7 L 581.9 86.8 L 583.7 86.9 L 589.5 87.1 L 591.5 87.2 L 591.8 87.2 L 592.7 87.2 L 593 87.2 L 594.6 87.2 L 601.9 86.1 L 602.1 86 L 607.1 83.1 L 611.4 80.6 L 622.5 77.2 L 633 79.9 L 637.7 92.6 L 641.9 94.6 L 644.4 95.8 L 652.1 99.4 L 655 98.9 L 655.5 98.9 L 655.8 98.9 L 657.1 99 L 657.5 99.1 L 658.6 98.7 L 659.5 98.5 L 660.9 98.4 L 661 98.4 L 661.3 98.4 L 661.6 98.5 L 662.4 98.8 L 662.9 98.9 L 664.4 99.7 L 664.4 99.7 L 665.2 99.7 L 667.2 99.3 L 670.6 98.5 L 671.7 99.9 L 672.5 100.8 L 677.2 101.1 L 678 101.4 L 678.1 101.4 L 682.4 101.5 L 683 101.5 L 683.5 101.5 L 683.9 101.5 L 684.5 101.5 L 685.3 101.5 L 686.1 101.8 L 686.7 102 L 686.7 102 L 686.7 102 L 689.6 103.4 L 689.8 103.8 L 692 103.5 L 693.2 103.3 L 696.9 102.9 L 699.4 102.2 L 702.1 102.4 L 702.3 102.4 L 703.7 102.8 L 707.7 106 L 709.9 106.7 L 712.4 107.4 L 715.2 107.3 L 716.8 107.6 L 719 108 L 725.2 108.1 L 728.2 108.2 L 731.5 108.5 L 732.3 114.8 L 729.7 121.7 L 729.3 122.8 L 729.9 126.1 L 732 136.9 L 732.4 139 L 732.8 139.7 L 733.3 140.3 L 732.1 142 L 724.1 153.8 L 715.5 164.9 L 717.3 177.9 L 715.2 182.2 L 710.5 185.9 L 708 187.4 L 705.7 188.7 L 703.4 189.2 L 699 190.4 L 694.6 191.2 L 690.9 191.2 L 690.3 191.2 L 685.5 191.2 L 680.8 190.6 L 677.1 189.8 L 674.4 188.9 L 670.8 187.4 L 669.3 186.3 L 667.7 185.3 L 666 184.2 L 663.1 183.5 L 661.4 182.6 L 658.9 181.5 L 657.7 181 L 657.1 181.2 L 656.3 181.4 L 654.6 181.8 L 654 181.9 L 651.5 182.5 L 647.2 182.8 L 646.9 182.8 L 644.3 182.9 L 642.7 183 L 640.9 182.8 L 640.6 183.1 L 638.9 184.8 L 637.2 186.4 L 634.4 188.4 L 631.6 189.9 L 631.3 190.1 L 627.9 191.8 L 621.9 193.8 L 622.5 196.7 L 623.1 200 L 623.3 205.2 L 623.1 206.4 L 622.8 210 L 620.9 216.6 L 618.1 222.5 L 614.7 227.1 L 610.1 231.9 L 605.8 234.8 L 600 238.1 L 594.4 239.9 L 589 240.8 L 585.3 240.8 L 583.2 240.8 L 578.5 239.9 L 575.5 238.8 L 573.3 238 L 571.9 237.3 L 568.7 235.3 L 568.1 235 L 563.9 232.3 L 563 231.6 L 561.6 230.3 L 557.7 225.8 L 554.8 221.5 L 552.6 216.9 L 552.3 216.2 L 551.1 212.9 L 550.6 210.1 L 550.5 209.8 L 550.5 209.8 L 550.4 209 L 550.4 208.8 L 550.3 208.8 L 545.6 207.6 L 544.5 207.2 L 540.3 205.5 L 536.3 202.8 L 531.7 199 L 529.7 196.7 L 527.6 194.2 L 526 191.8 L 526 191.8 L 524.8 189.3 L 523.7 187.1 L 523 185.1 L 521.7 185.4 L 517.6 185.9 L 515.3 186 L 513.1 186 L 508.7 185.5 L 507.1 185.6 L 504.2 185.9 L 501.5 185.8 L 501 185.6 L 499.8 185.4 L 496.8 185.9 L 493.8 186.6 L 490.8 187.6 L 487.9 188.5 L 486.8 188.4 L 480.7 189.2 L 477.1 188.9 L 473 188.6 L 465 185.8 L 458.5 181.4 L 453.4 178.3 L 452.3 176.6 L 451.8 178.6 L 450.5 181.5 L 447.9 186.1 L 447.1 187.3 L 445.5 189.2 L 444.3 190.6 L 443.3 191.7 L 442 193.1 L 440.3 194.7 L 437.4 196.8 L 434.2 198.8 L 431.3 200 L 429 200.8 L 428 201 L 422.9 202.1 L 417.8 202.8 L 406.6 201.2 L 397.1 196.2 L 389.3 189.8 L 385.8 183.8 L 383 176.8 L 381.5 170.6 L 381.7 168 Z M 516 599.3 L 516.2 596 L 517.5 590.1 L 519.3 584.8 L 522 579.7 L 525 575.2 L 527.7 572.3 L 528.1 571.7 L 526.7 568.3 L 524.8 563.4 L 523.7 557.9 L 523 552.3 L 522.7 549.9 L 523.7 543.8 L 524.9 539.5 L 526.5 535 L 529.2 528.8 L 531.3 523.7 L 533.1 520.6 L 536.4 516.3 L 537.9 514.9 L 538.2 514.5 L 538.6 514.2 L 540.9 511.9 L 543.5 509.5 L 547.4 506.3 L 550.6 504 L 555.1 501.7 L 557.6 500.8 L 561.1 499.6 L 566.4 498.2 L 570.5 497.5 L 571.9 497.6 L 573.4 497.3 L 575.6 497.3 L 578.1 497.5 L 580.8 497.7 L 584.5 498.8 L 587.5 500.1 L 588.7 500.5 L 590.8 501 L 592.2 501.6 L 593.2 502.2 L 594 502.2 L 594.7 501.9 L 596.2 500.6 L 599 498.2 L 602.1 496.3 L 604.2 495.2 L 607.6 493.5 L 609.5 492.6 L 612 492 L 614.2 491.5 L 615.3 491.4 L 616.3 491.7 L 618.1 490.9 L 620.2 490.1 L 624.1 489.1 L 629.8 488.3 L 634.3 488 L 639.9 488.4 L 643.9 489.2 L 644.8 489.4 L 646.5 489 L 647 489 L 648.2 489.1 L 651.1 488.5 L 657.1 487.6 L 658.8 487.6 L 661.5 487.9 L 664.8 488.5 L 668 489.2 L 670.5 490.4 L 674.3 491.9 L 678.3 494.2 L 681.5 496.6 L 684.9 499.7 L 688 503 L 690.5 506.2 L 692.6 506.5 L 697.7 503.3 L 700.3 501.9 L 700.8 500.1 L 703.1 496.5 L 705.2 493.9 L 706.4 492.8 L 709.1 490.2 L 712.6 487.5 L 715.8 485.8 L 723.4 482.4 L 726.9 481.4 L 732.5 480.6 L 737 480.6 L 742.3 480.9 L 748.7 481.3 L 750.8 481.6 L 757.5 483.5 L 759.4 484.2 L 764.3 486 L 770.2 489.1 L 772.7 490.6 L 776.7 493.4 L 781.4 496.4 L 783.7 498.7 L 787.1 502.4 L 788.9 505.2 L 790.9 506.7 L 795.3 509.3 L 800.7 512.9 L 803.9 515.4 L 806.8 517.7 L 808.8 519.9 L 811.4 523.5 L 813.5 527.4 L 816.2 533.2 L 818.2 541.1 L 818.5 543.4 L 818.5 546.8 L 817.9 549.9 L 817.5 550.6 L 815.7 556.6 L 813.3 562.9 L 810.3 568 L 806 572.9 L 800 578 L 793.9 582.1 L 793.4 582.4 L 785.6 585.7 L 778.6 587.7 L 774.7 588.2 L 773.2 589.5 L 769.3 591.8 L 766 593.6 L 763.4 594.7 L 761.4 596.2 L 759.7 597.1 L 758.4 597.8 L 754.4 600.7 L 748 603 L 746.7 603.6 L 746.5 603.6 L 743.8 605.6 L 742.3 606.2 L 739.9 607.3 L 736.1 609.6 L 727.1 612.7 L 721.7 613.3 L 717.3 613.4 L 711.2 615 L 708.2 616.2 L 707.2 616.6 L 703.9 617.9 L 699.2 619.5 L 697.1 619.8 L 693.5 620.4 L 691.6 620.8 L 685.3 621.8 L 683.3 622.4 L 679.6 624.7 L 673.9 626.7 L 671.8 627.3 L 667.6 628.3 L 667 628.4 L 665.4 628.5 L 663.4 629.8 L 659.5 631.1 L 657.1 631.7 L 656.5 631.9 L 654.8 632.9 L 652.4 633.9 L 650.6 634.1 L 649.3 634.2 L 644.9 634.4 L 641.3 634.3 L 638.9 634.8 L 635.5 635.9 L 630.3 637.3 L 630.1 637.3 L 626.4 637.9 L 623.2 638 L 621.6 638.1 L 618.3 637.8 L 614.9 637.4 L 612.6 636.6 L 610.8 635.9 L 607.8 634.6 L 606.1 633.5 L 605.2 633.2 L 602.3 633.9 L 598.4 634.2 L 592.9 634.3 L 587.8 633.5 L 581.9 631.6 L 581.6 631.5 L 580.1 630.7 L 578.1 630.5 L 575.5 631.4 L 574.7 632 L 571.9 633.8 L 570.4 634.8 L 564.6 637.2 L 559.7 638.5 L 554.4 639 L 549.2 638.6 L 543.8 637.7 L 537 635 L 530.7 630.6 L 524.9 624.3 L 520.8 617.7 L 518.4 612.2 L 517.1 608.2 L 516.8 606.6 L 516.1 604.1 L 516 599.3 Z" fill="#d9e1ea" stroke="#9aa9bc" stroke-width="1" fill-rule="evenodd"/>
  <path d="M 381.7 168 L 381.8 159.4 L 383.8 152.4 L 387.8 145.2 L 392.7 139.7 L 391.5 134.1 L 391.5 134 L 391.1 128.4 L 391.2 128.4 L 394.4 118 L 397.7 110.3 L 398.9 108.6 L 401.6 104.7 L 401.8 104.2 L 402.5 102.6 L 402.8 102 L 406.5 96.9 L 406.9 94.3 L 407.3 92.3 L 408.2 88.8 L 409.5 85.7 L 409 77.7 L 410 69.1 L 413.4 62.1 L 418.1 54.3 L 424 48.8 L 431.6 44.7 L 445.2 39.8 L 458.2 40.2 L 465.8 42.9 L 474.7 47.2 L 481.2 53.4 L 484.8 50.9 L 486.8 50 L 490.6 48.6 L 495 47 L 498.5 46.3 L 503.6 45.8 L 507.5 46.1 L 514 47.4 L 520.2 49.4 L 521.8 47.5 L 523.2 45.8 L 525.5 43.8 L 528.4 41.9 L 532.1 39.9 L 535.4 38.4 L 535.8 38.2 L 540.3 36.8 L 540.3 36.8 L 544.7 36.4 L 549.4 36 L 554.7 36.4 L 555.8 36.6 L 558 37.2 L 560.7 38 L 571.9 75 L 571.9 75.7 L 572.4 77.8 L 572.4 78.2 L 572.8 78.6 L 573.2 79.1 L 578.5 85.6 L 578.8 85.7 L 581.7 86.7 L 581.9 86.8 L 583.7 86.9 L 589.5 87.1 L 591.5 87.2 L 591.8 87.2 L 592.7 87.2 L 593 87.2 L 594.6 87.2 L 601.9 86.1 L 602.1 86 L 607.1 83.1 L 611.4 80.6 L 622.5 77.2 L 633 79.9 L 637.7 92.6 L 641.9 94.6 L 644.4 95.8 L 652.1 99.4 L 655 98.9 L 655.5 98.9 L 655.8 98.9 L 657.1 99 L 657.5 99.1 L 658.6 98.7 L 659.5 98.5 L 660.9 98.4 L 661 98.4 L 661.3 98.4 L 661.6 98.5 L 662.4 98.8 L 662.9 98.9 L 664.4 99.7 L 664.4 99.7 L 665.2 99.7 L 667.2 99.3 L 670.6 98.5 L 671.7 99.9 L 672.5 100.8 L 677.2 101.1 L 678 101.4 L 678.1 101.4 L 682.4 101.5 L 683 101.5 L 683.5 101.5 L 683.9 101.5 L 684.5 101.5 L 685.3 101.5 L 686.1 101.8 L 686.7 102 L 686.7 102 L 686.7 102 L 689.6 103.4 L 689.8 103.8 L 692 103.5 L 693.2 103.3 L 696.9 102.9 L 699.4 102.2 L 702.1 102.4 L 702.3 102.4 L 703.7 102.8 L 707.7 106 L 709.9 106.7 L 712.4 107.4 L 715.2 107.3 L 716.8 107.6 L 719 108 L 725.2 108.1 L 728.2 108.2 L 731.5 108.5 L 732.3 114.8 L 729.7 121.7 L 729.3 122.8 L 729.9 126.1 L 732 136.9 L 732.4 139 L 732.8 139.7 L 733.3 140.3 L 732.1 142 L 724.1 153.8 L 715.5 164.9 L 717.3 177.9 L 715.2 182.2 L 710.5 185.9 L 708 187.4 L 705.7 188.7 L 703.4 189.2 L 699 190.4 L 694.6 191.2 L 690.9 191.2 L 690.3 191.2 L 685.5 191.2 L 680.8 190.6 L 677.1 189.8 L 674.4 188.9 L 670.8 187.4 L 669.3 186.3 L 667.7 185.3 L 666 184.2 L 663.1 183.5 L 661.4 182.6 L 658.9 181.5 L 657.7 181 L 657.1 181.2 L 656.3 181.4 L 654.6 181.8 L 654 181.9 L 651.5 182.5 L 647.2 182.8 L 646.9 182.8 L 644.3 182.9 L 642.7 183 L 640.9 182.8 L 640.6 183.1 L 638.9 184.8 L 637.2 186.4 L 634.4 188.4 L 631.6 189.9 L 631.3 190.1 L 627.9 191.8 L 621.9 193.8 L 622.5 196.7 L 623.1 200 L 623.3 205.2 L 623.1 206.4 L 622.8 210 L 620.9 216.6 L 618.1 222.5 L 614.7 227.1 L 610.1 231.9 L 605.8 234.8 L 600 238.1 L 594.4 239.9 L 589 240.8 L 585.3 240.8 L 583.2 240.8 L 578.5 239.9 L 575.5 238.8 L 573.3 238 L 571.9 237.3 L 568.7 235.3 L 568.1 235 L 563.9 232.3 L 563 231.6 L 561.6 230.3 L 557.7 225.8 L 554.8 221.5 L 552.6 216.9 L 552.3 216.2 L 551.1 212.9 L 550.6 210.1 L 550.5 209.8 L 550.5 209.8 L 550.4 209 L 550.4 208.8 L 550.3 208.8 L 545.6 207.6 L 544.5 207.2 L 540.3 205.5 L 536.3 202.8 L 531.7 199 L 529.7 196.7 L 527.6 194.2 L 526 191.8 L 526 191.8 L 524.8 189.3 L 523.7 187.1 L 523 185.1 L 521.7 185.4 L 517.6 185.9 L 515.3 186 L 513.1 186 L 508.7 185.5 L 507.1 185.6 L 504.2 185.9 L 501.5 185.8 L 501 185.6 L 499.8 185.4 L 496.8 185.9 L 493.8 186.6 L 490.8 187.6 L 487.9 188.5 L 486.8 188.4 L 480.7 189.2 L 477.1 188.9 L 473 188.6 L 465 185.8 L 458.5 181.4 L 453.4 178.3 L 452.3 176.6 L 451.8 178.6 L 450.5 181.5 L 447.9 186.1 L 447.1 187.3 L 445.5 189.2 L 444.3 190.6 L 443.3 191.7 L 442 193.1 L 440.3 194.7 L 437.4 196.8 L 434.2 198.8 L 431.3 200 L 429 200.8 L 428 201 L 422.9 202.1 L 417.8 202.8 L 406.6 201.2 L 397.1 196.2 L 389.3 189.8 L 385.8 183.8 L 383 176.8 L 381.5 170.6 L 381.7 168 Z M 516 599.3 L 516.2 596 L 517.5 590.1 L 519.3 584.8 L 522 579.7 L 525 575.2 L 527.7 572.3 L 528.1 571.7 L 526.7 568.3 L 524.8 563.4 L 523.7 557.9 L 523 552.3 L 522.7 549.9 L 523.7 543.8 L 524.9 539.5 L 526.5 535 L 529.2 528.8 L 531.3 523.7 L 533.1 520.6 L 536.4 516.3 L 537.9 514.9 L 538.2 514.5 L 538.6 514.2 L 540.9 511.9 L 543.5 509.5 L 547.4 506.3 L 550.6 504 L 555.1 501.7 L 557.6 500.8 L 561.1 499.6 L 566.4 498.2 L 570.5 497.5 L 571.9 497.6 L 573.4 497.3 L 575.6 497.3 L 578.1 497.5 L 580.8 497.7 L 584.5 498.8 L 587.5 500.1 L 588.7 500.5 L 590.8 501 L 592.2 501.6 L 593.2 502.2 L 594 502.2 L 594.7 501.9 L 596.2 500.6 L 599 498.2 L 602.1 496.3 L 604.2 495.2 L 607.6 493.5 L 609.5 492.6 L 612 492 L 614.2 491.5 L 615.3 491.4 L 616.3 491.7 L 618.1 490.9 L 620.2 490.1 L 624.1 489.1 L 629.8 488.3 L 634.3 488 L 639.9 488.4 L 643.9 489.2 L 644.8 489.4 L 646.5 489 L 647 489 L 648.2 489.1 L 651.1 488.5 L 657.1 487.6 L 658.8 487.6 L 661.5 487.9 L 664.8 488.5 L 668 489.2 L 670.5 490.4 L 674.3 491.9 L 678.3 494.2 L 681.5 496.6 L 684.9 499.7 L 688 503 L 690.5 506.2 L 692.6 506.5 L 697.7 503.3 L 700.3 501.9 L 700.8 500.1 L 703.1 496.5 L 705.2 493.9 L 706.4 492.8 L 709.1 490.2 L 712.6 487.5 L 715.8 485.8 L 723.4 482.4 L 726.9 481.4 L 732.5 480.6 L 737 480.6 L 742.3 480.9 L 748.7 481.3 L 750.8 481.6 L 757.5 483.5 L 759.4 484.2 L 764.3 486 L 770.2 489.1 L 772.7 490.6 L 776.7 493.4 L 781.4 496.4 L 783.7 498.7 L 787.1 502.4 L 788.9 505.2 L 790.9 506.7 L 795.3 509.3 L 800.7 512.9 L 803.9 515.4 L 806.8 517.7 L 808.8 519.9 L 811.4 523.5 L 813.5 527.4 L 816.2 533.2 L 818.2 541.1 L 818.5 543.4 L 818.5 546.8 L 817.9 549.9 L 817.5 550.6 L 815.7 556.6 L 813.3 562.9 L 810.3 568 L 806 572.9 L 800 578 L 793.9 582.1 L 793.4 582.4 L 785.6 585.7 L 778.6 587.7 L 774.7 588.2 L 773.2 589.5 L 769.3 591.8 L 766 593.6 L 763.4 594.7 L 761.4 596.2 L 759.7 597.1 L 758.4 597.8 L 754.4 600.7 L 748 603 L 746.7 603.6 L 746.5 603.6 L 743.8 605.6 L 742.3 606.2 L 739.9 607.3 L 736.1 609.6 L 727.1 612.7 L 721.7 613.3 L 717.3 613.4 L 711.2 615 L 708.2 616.2 L 707.2 616.6 L 703.9 617.9 L 699.2 619.5 L 697.1 619.8 L 693.5 620.4 L 691.6 620.8 L 685.3 621.8 L 683.3 622.4 L 679.6 624.7 L 673.9 626.7 L 671.8 627.3 L 667.6 628.3 L 667 628.4 L 665.4 628.5 L 663.4 629.8 L 659.5 631.1 L 657.1 631.7 L 656.5 631.9 L 654.8 632.9 L 652.4 633.9 L 650.6 634.1 L 649.3 634.2 L 644.9 634.4 L 641.3 634.3 L 638.9 634.8 L 635.5 635.9 L 630.3 637.3 L 630.1 637.3 L 626.4 637.9 L 623.2 638 L 621.6 638.1 L 618.3 637.8 L 614.9 637.4 L 612.6 636.6 L 610.8 635.9 L 607.8 634.6 L 606.1 633.5 L 605.2 633.2 L 602.3 633.9 L 598.4 634.2 L 592.9 634.3 L 587.8 633.5 L 581.9 631.6 L 581.6 631.5 L 580.1 630.7 L 578.1 630.5 L 575.5 631.4 L 574.7 632 L 571.9 633.8 L 570.4 634.8 L 564.6 637.2 L 559.7 638.5 L 554.4 639 L 549.2 638.6 L 543.8 637.7 L 537 635 L 530.7 630.6 L 524.9 624.3 L 520.8 617.7 L 518.4 612.2 L 517.1 608.2 L 516.8 606.6 L 516.1 604.1 L 516 599.3 Z" fill="#1e5ea9" fill-opacity="0.86" stroke="#0b3b75" stroke-width="1.2" fill-rule="evenodd"/>
</svg>
